<svg xmlns="http://www.w3.org/2000/svg" viewBox="0 0 100 100" enable-background="new 0 0 100 100"><style type="text/css">.st0{fill:#1E306E;}</style><path d="M96 24.1v-3.3h-2v-7.1H48.8v-2.1h-3.3v2.1H23.4v-2.1h-3.3v2.1H4v67.2h15.6v-3.3H7.3v-28h15v-3.3H17V16.9h3.1v2h3.3v-2h22.2v2h3.3v-2h18.3v13.5h3.3V16.9h20.4v3.9h-2.1v3.3h2.1v8.7h-2.1V36h2.1v10.3H70.2v-7.2H67v10.5h23.8v28.1h-7.6v-2.1h-3.3v2.1H64.6v-1.9h-3.3v1.9H50.9V49.6H58v-3.3H36.5v3.3h11.1v28.1H30.5L21.3 86l2.2 2.4 8.2-7.5h29.6v2.2h3.3v-2.2h15.2v2h3.3v-2H94V36h2v-3.3h-2V24h2zM13.8 46.3H7.3V16.9h6.5v29.4zM10.5 24.4c1 0 1.8-.8 1.8-1.8s-.8-1.8-1.8-1.8-1.8.8-1.8 1.8.8 1.8 1.8 1.8zM10.5 30.2c1 0 1.8-.8 1.8-1.8s-.8-1.8-1.8-1.8-1.8.8-1.8 1.8.8 1.8 1.8 1.8zM88.1 28.4c0-1-.8-1.8-1.8-1.8s-1.8.8-1.8 1.8.8 1.8 1.8 1.8 1.8-.8 1.8-1.8z" class="st0"/></svg>