<svg xmlns="http://www.w3.org/2000/svg" viewBox="0 0 100 100"><path d="M48.4 36c-1.4.5-2.1 2.1-1.6 3.5s2.1 2.1 3.5 1.6 2.1-2.1 1.6-3.5-2.1-2.2-3.5-1.6zm1.3 11.3c.5 1.4 2.1 2.1 3.5 1.6s2.1-2.1 1.6-3.5-2.1-2.1-3.5-1.6-2.1 2.1-1.6 3.5zm43.2 10h-75V19.8c0-4.1 3.3-7.4 7.5-7.4 1.3 0 2.5.3 3.5.9l-5.7 6.6c-.8.9-1 2.1-.6 3.2l2.1 5.7c.3.8.9 1.5 1.7 1.8.4.2.9.3 1.3.3s.8-.1 1.2-.2l19.8-7.8c1.6-.6 2.4-2.5 1.8-4.1l-2.1-5.7a3 3 0 00-2.6-2.1l-9.3-1c-.4 0-.8 0-1.2.1a13.91 13.91 0 00-23.8 9.7v37.4H7.1c-1.8 0-3.2 1.4-3.2 3.2s1.4 3.2 3.2 3.2h.2v7.6c0 7.4 4.3 13.9 10.6 17l-.6 1.2c-.8 1.6-.1 3.5 1.5 4.2.4.2.9.3 1.4.3 1.2 0 2.3-.7 2.9-1.8l1-2.1c.7.1 1.5.1 2.3.1h47.3a15 15 0 003.7-.4l1.1 2.3c.5 1.2 1.7 1.8 2.9 1.8.5 0 .9-.1 1.4-.3 1.6-.8 2.3-2.7 1.5-4.2l-.9-1.8c5.6-3.3 9.4-9.4 9.4-16.4v-7.6h.2c1.8 0 3.2-1.4 3.2-3.2s-1.6-3-3.3-3zM33.7 17.6l2.9-1.1 6.6.7.3.9-13.9 5.4-.3-.9 4.4-5zm52.6 53.6c0 6.9-5.7 12.6-12.7 12.6H26.4c-7 0-12.7-5.7-12.7-12.6v-6.6h72.7v6.6zM41 44.9c1.4-.5 2.1-2.1 1.6-3.5s-2.1-2.1-3.5-1.6-2.1 2.1-1.6 3.5 2.1 2.1 3.5 1.6zm6.4-11.6c1.4-.5 2.1-2.1 1.6-3.5s-2.1-2.1-3.5-1.6-2.1 2.1-1.6 3.5 2.1 2.1 3.5 1.6zm-7.7.3c-.5-1.4-2.1-2.1-3.5-1.6s-2.1 2.1-1.6 3.5 2.1 2.1 3.5 1.6 2.1-2.1 1.6-3.5zm4.2 19.1c1.4-.5 2.1-2.1 1.6-3.5-.5-1.5-2.1-2.2-3.5-1.7-1.4.5-2.1 2.1-1.6 3.5s2.1 2.2 3.5 1.7z"/></svg>