<svg version="1.1" id="property_value_icon" xmlns="http://www.w3.org/2000/svg" xmlns:xlink="http://www.w3.org/1999/xlink" x="0px" y="0px"
	 viewBox="0 0 100 100" style="enable-background:new 0 0 100 100;" xml:space="preserve">
<g>
	<g>
		<g>
			<g>
				<g>
					<g>
						<g>
							<path class="property_value_icon_class" d="M77.1,59.5l-3.3,0l0-1.7c0-7.4,0.1-19.5,0.1-19.5l3.3,0c0,0-0.1,12.2-0.1,19.5L77.1,59.5z"/>
						</g>
					</g>
				</g>
			</g>
		</g>
		<g>
			<g>
				<g>
					<g>
						<g>
							<rect x="28.9" y="36.2" class="property_value_icon_class" width="3.3" height="23.8"/>
						</g>
					</g>
				</g>
			</g>
		</g>
		<g>
			<g>
				<g>
					<g>
						<g>
							<g>
								<path class="property_value_icon_class" d="M81.4,32.7c-0.4,0-0.8-0.1-1.1-0.4l-7-5.9c-0.7-0.6-0.8-1.6-0.2-2.3c0.6-0.7,1.6-0.8,2.3-0.2l7,5.9
									c0.7,0.6,0.8,1.6,0.2,2.3C82.4,32.5,81.9,32.7,81.4,32.7z"/>
							</g>
						</g>
					</g>
				</g>
			</g>
			<g>
				<g>
					<g>
						<g>
							<g>
								<path class="property_value_icon_class" d="M24.9,31.9c-0.5,0-1-0.2-1.3-0.6c-0.6-0.7-0.5-1.8,0.3-2.3L52.2,6.2c0.6-0.5,1.5-0.5,2.1,0.1
									c0.1,0.1,7.1,6.3,13.4,11.6c0.7,0.6,0.8,1.6,0.2,2.3c-0.6,0.7-1.6,0.8-2.3,0.2c-4.9-4.1-10.2-8.8-12.4-10.7L25.9,31.5
									C25.6,31.8,25.3,31.9,24.9,31.9z"/>
							</g>
						</g>
					</g>
				</g>
			</g>
			<g>
				<g>
					<g>
						<g>
							<g>
								<path class="property_value_icon_class" d="M73.3,26c-0.9,0-1.7-0.7-1.7-1.7V9.7c0-0.9,0.7-1.7,1.7-1.7S75,8.8,75,9.7v14.6
									C75,25.2,74.2,26,73.3,26z"/>
							</g>
						</g>
					</g>
				</g>
			</g>
			<g>
				<g>
					<g>
						<g>
							<g>
								<path class="property_value_icon_class" d="M66.7,20c-0.9,0-1.7-0.7-1.7-1.7v-6c0-0.9,0.7-1.7,1.7-1.7c0.9,0,1.7,0.7,1.7,1.7v6
									C68.3,19.3,67.6,20,66.7,20z"/>
							</g>
						</g>
					</g>
				</g>
			</g>
			<g>
				<g>
					<g>
						<g>
							<g>
								<path class="property_value_icon_class" d="M75.3,10.7H64c-0.9,0-1.7-0.7-1.7-1.7s0.7-1.7,1.7-1.7h11.3c0.9,0,1.7,0.7,1.7,1.7S76.2,10.7,75.3,10.7
									z"/>
							</g>
						</g>
					</g>
				</g>
			</g>
		</g>
		<g>
			<g>
				<g>
					<g>
						<g>
							<path class="property_value_icon_class" d="M75.6,39.6c-0.4,0-0.8-0.1-1.1-0.4L53.2,21.4L31.6,38.7c-0.7,0.6-1.8,0.5-2.3-0.3
								c-0.6-0.7-0.5-1.8,0.3-2.3L52.2,18c0.6-0.5,1.5-0.5,2.1,0l22.3,18.6c0.7,0.6,0.8,1.6,0.2,2.3C76.5,39.4,76,39.6,75.6,39.6z"
								/>
						</g>
					</g>
				</g>
			</g>
		</g>
		<g>
			<g>
				<g>
					<g>
						<g>
							<polygon class="property_value_icon_class" points="47.1,63 43.8,63 43.8,43.2 62.7,43.2 62.7,59.7 59.4,59.7 59.4,46.5 47.1,46.5 							"/>
						</g>
					</g>
				</g>
			</g>
		</g>
	</g>
	<g>
		<g>
			<g>
				<g>
					<g>
						<path class="property_value_icon_class" d="M5.7,83.8l-2.5-2.1l11.7-13.9c2.2-2.7,9.3-5.6,13.5-5.6c0,0,0,0,0,0c3.6,0,13.4,1.6,15,1.9
							c2.4-0.2,15.7-1.4,20-0.2c2.7,0.7,6.3,3.4,6.7,3.7c0.2,0.2,0.4,0.4,0.5,0.6c0.7,1.6,1.4,4.7-0.9,6.6c-1.8,1.6-5.4,2.2-9.2,2.8
							c-1.7,0.3-3.3,0.6-4.7,0.9c-1.8,0.5-3.9,0.3-6.2,0.1c-3.7-0.3-7.9-0.6-11.3,1.6c-0.8,0.5-1.8,0.3-2.3-0.5
							c-0.5-0.8-0.3-1.8,0.5-2.3C41,74.7,46,75,50,75.3c2,0.1,3.9,0.3,5.2,0c1.5-0.4,3.2-0.7,5-1c2.9-0.5,6.5-1.1,7.6-2.1
							c0.6-0.5,0.3-1.8,0.1-2.4c-1.2-0.9-3.7-2.5-5.2-2.9c-3.3-0.9-14.8-0.1-19,0.4c-0.1,0-0.3,0-0.4,0c-0.1,0-11.1-1.9-14.7-1.9
							c0,0,0,0,0,0c-3.4,0-9.5,2.7-11,4.4L5.7,83.8z"/>
					</g>
				</g>
			</g>
		</g>
	</g>
	<g>
		<g>
			<g>
				<g>
					<g>
						<path class="property_value_icon_class" d="M22.1,94.2c-0.5,0-1.1-0.3-1.4-0.8c-0.5-0.8-0.3-1.8,0.5-2.3c0.3-0.2,7-4.4,12.3-5.1
							c3.7-0.5,15.3-0.1,16.6,0l6-0.4c9.9-5.6,25-14.4,27.1-16.5c2.3-2.3,7.1-6.4,9.4-8.4c-0.8-0.5-2.2-1-4.5-0.9
							C84,60,75.8,65.6,73,67.7c-0.7,0.6-1.8,0.4-2.3-0.3c-0.6-0.7-0.4-1.8,0.3-2.3c1.1-0.9,11.1-8.3,17.1-8.7
							c6.7-0.4,8.5,3.5,8.6,3.6c0.3,0.7,0.1,1.5-0.4,1.9c-0.1,0.1-7.6,6.4-10.5,9.4c-3.1,3.1-25.6,15.8-28.2,17.3
							c-0.2,0.1-0.5,0.2-0.7,0.2l-6.5,0.4c-0.1,0-0.1,0-0.2,0c-0.1,0-12.6-0.5-16.1,0c-4.6,0.6-11,4.6-11,4.7
							C22.7,94.1,22.4,94.2,22.1,94.2z"/>
					</g>
				</g>
			</g>
		</g>
	</g>
</g>
</svg>
