<svg xmlns="http://www.w3.org/2000/svg" xmlns:xlink="http://www.w3.org/1999/xlink" id="buyers)trust_icon" x="0px" y="0px" viewBox="0 0 100 100" style="enable-background:new 0 0 100 100;" xml:space="preserve">
<g>
	<g>
		<g>
			<g>
				<g>
					<g>
						<path d="M87,48c-0.4,0-0.8-0.2-1.2-0.5L59.8,22.4c-0.3-0.3-0.5-0.7-0.5-1.2c0-0.4,0.2-0.9,0.5-1.2l8.4-8.5        c0.6-0.6,1.7-0.7,2.3,0c0.7,0.6,0.7,1.7,0,2.3l-7.3,7.3l23.5,22.7l6.3-8c0.6-0.7,1.6-0.8,2.3-0.3c0.7,0.6,0.8,1.6,0.3,2.3        l-7.5,9.4C88,47.8,87.6,48,87.1,48C87.1,48,87,48,87,48z"></path>
					</g>
				</g>
			</g>
		</g>
	</g>
	<g>
		<g>
			<g>
				<g>
					<g>
						<path d="M38.1,50.6c-1.4,0-2.7-0.5-3.8-1.4c-1.9-1.6-3.2-4.8-1.8-7.9c0.8-1.9,5.3-6.5,7.6-8.6c7.1-6.8,9-6.8,9.7-6.8        c2.5,0,7-0.6,8.8-0.8l0.4-0.1c0.4-0.1,1.3-0.8,1.7-1.3c0.6-0.7,1.6-0.8,2.3-0.2c0.7,0.6,0.8,1.6,0.2,2.3        c-0.3,0.4-1.9,2.1-3.8,2.4l-0.4,0.1c-1.9,0.3-6.4,0.8-9.1,0.9c-0.7,0.2-3.3,1.9-7.7,6.1c-3.8,3.6-6.3,6.7-6.6,7.4        c-0.7,1.6,0,3.2,1,4.1c1.8,1.6,4.3-0.3,4.8-0.7l11-9.1c0.7-0.6,1.7-0.5,2.3,0.2c0.6,0.7,0.5,1.7-0.2,2.3l-11,9.1        C41.7,49.9,39.8,50.6,38.1,50.6z"></path>
					</g>
				</g>
			</g>
		</g>
	</g>
	<g>
		<g>
			<g>
				<g>
					<g>
						<path d="M75.5,60.7c-0.5,0-0.9-0.2-1.2-0.6c-0.6-0.7-0.5-1.7,0.2-2.3c1-0.9,3.9-3.5,4.8-4.8c0.9-1.2,1.3-3.4,1.6-5.2        c0.2-1.1,0.4-2.1,0.7-2.9c0.4-0.8,1.3-1.2,2.2-0.9c0.8,0.4,1.2,1.3,0.9,2.2c-0.2,0.4-0.3,1.3-0.5,2.2        c-0.4,2.1-0.9,4.7-2.2,6.6c-1.3,1.8-4.9,4.9-5.3,5.3C76.2,60.6,75.9,60.7,75.5,60.7z"></path>
					</g>
				</g>
			</g>
		</g>
	</g>
	<g>
		<g>
			<g>
				<g>
					<g>
						<path d="M55.7,89c-1.9,0-3.9-0.6-5.4-1.7c-0.1-0.1-0.4-0.3-0.7-0.4c-0.7-0.4-1.2-0.7-1.5-1c-0.7-0.6-0.8-1.6-0.3-2.3        c0.6-0.7,1.6-0.8,2.3-0.3c0.2,0.1,0.8,0.5,1.1,0.7c0.5,0.3,0.8,0.5,1,0.6c1.6,1.2,4.5,1.4,6,0.4c0.5-0.4,1.2-1.1,0.7-2.8        c-0.2-0.6,0-1.2,0.4-1.7c0.4-0.4,1.1-0.6,1.7-0.4c2.3,0.8,3.1,0.6,3.8-0.1c0.9-0.8,1.4-2.3,0.9-3.1c-0.4-0.6-0.3-1.3,0.1-1.8        c0.4-0.5,1.1-0.8,1.7-0.6c2.1,0.5,2.9-0.2,3.5-0.8l0.1-0.1c0.9-0.8,1.2-2.3,0.2-3.5l0,0c-0.6-0.7-0.5-1.8,0.2-2.3        c0.5-0.4,1.1-0.5,1.6-0.3c0.3-0.2,0.6-0.5,0.7-0.7c0.5-0.8,0.7-1.4,0.6-1.9c-0.1-1.4-0.9-3.4-1.9-4.6        c-1.3-1.5-14.3-12.1-22.7-18.9c-0.7-0.6-0.8-1.6-0.3-2.3c0.6-0.7,1.6-0.8,2.3-0.3c2.2,1.7,21.3,17.1,23.2,19.4        c1.5,1.7,2.6,4.4,2.7,6.5c0.1,1.6-0.6,2.9-1.1,3.8c-0.2,0.4-0.9,1.1-1.7,1.7c0.5,2,0,4.3-1.7,5.8l-0.1,0.1        c-0.6,0.6-1.8,1.7-4,1.9c-0.1,1.7-1,3.5-2.2,4.6c-1.5,1.4-3.1,1.6-4.7,1.4c-0.2,1.6-0.9,2.9-2.3,3.8        C58.9,88.6,57.3,89,55.7,89z"></path>
					</g>
				</g>
			</g>
		</g>
	</g>
	<g>
		<g>
			<g>
				<g>
					<g>
						<path d="M59.9,83.4l-5.7-4.8C53.5,78,53.4,77,54,76.3c0.6-0.7,1.6-0.8,2.3-0.2l5.7,4.8L59.9,83.4z"></path>
					</g>
				</g>
			</g>
		</g>
	</g>
	<g>
		<g>
			<g>
				<g>
					<g>
						<path d="M52.3,76.4c-0.4,0-0.8-0.1-1.1-0.4c0,0-0.1,0-0.1-0.1c-0.3-0.1-0.5-0.3-0.7-0.6c-0.4-0.7-0.3-1.6,0.3-2.1        c0.7-0.6,1.6-0.5,2.5,0.3c0.7,0.6,0.8,1.6,0.2,2.3C53.2,76.2,52.7,76.4,52.3,76.4z"></path>
					</g>
				</g>
			</g>
		</g>
	</g>
	<g>
		<g>
			<g>
				<g>
					<g>
						<path d="M66.6,77.8L59.5,72c-0.7-0.6-0.8-1.6-0.2-2.3c0.6-0.7,1.6-0.8,2.3-0.2l7.1,5.8L66.6,77.8z"></path>
					</g>
				</g>
			</g>
		</g>
	</g>
	<g>
		<g>
			<g>
				<g>
					<g>
						<path d="M57.8,70.1c-0.3,0-0.7-0.1-1-0.3h0c0,0,0,0,0,0c0,0,0,0,0,0c0,0,0,0,0,0c0,0,0,0,0,0c0,0,0,0,0,0c0,0,0,0,0,0        c0,0,0,0,0,0c0,0,0,0,0,0c0,0,0,0,0,0c0,0,0,0,0,0c0,0,0,0,0,0c0,0,0,0,0,0c0,0,0,0,0,0c0,0,0,0,0,0c0,0,0,0,0,0c0,0,0,0,0,0        c0,0,0,0,0,0c0,0,0,0,0,0c0,0,0,0,0,0c0,0,0,0,0,0c0,0,0,0,0,0c0,0,0,0,0,0c0,0,0,0,0,0c0,0,0,0,0,0c0,0,0,0,0,0c0,0,0,0,0,0        c0,0,0,0,0,0c0,0,0,0,0,0c0,0,0,0,0,0c0,0,0,0,0,0c0,0,0,0,0,0c0,0,0,0,0,0c0,0,0,0,0,0c0,0,0,0,0,0c0,0,0,0,0,0c0,0,0,0,0,0        c0,0,0,0,0,0c0,0,0,0,0,0c0,0,0,0,0,0c0,0,0,0,0,0c0,0,0,0,0,0c0,0,0,0,0,0c0,0,0,0,0,0l0,0h0l0,0c0,0,0,0,0,0l-0.2-0.1        c0,0,0,0,0,0l-0.1-0.1l0,0c-0.8-0.7-0.6-1.6-0.5-1.8c0.2-0.7,0.9-1.1,1.6-1.1c0.5,0,0.8,0.2,1,0.4l0,0l0.2,0.2c0,0,0,0,0,0        c0,0,0,0,0,0l0,0c0.7,0.6,0.8,1.6,0.2,2.3C58.7,69.9,58.3,70.1,57.8,70.1z"></path>
					</g>
				</g>
			</g>
		</g>
	</g>
	<g>
		<g>
			<g>
				<g>
					<g>
						<path d="M73.1,71.2c-0.4,0-0.7-0.1-1-0.4L63.5,64c-0.7-0.6-0.8-1.6-0.3-2.3c0.6-0.7,1.6-0.8,2.3-0.3l8.6,6.8        c0.7,0.6,0.8,1.6,0.3,2.3C74.1,71,73.6,71.2,73.1,71.2z"></path>
					</g>
				</g>
			</g>
		</g>
	</g>
	<g>
		<g>
			<g>
				<g>
					<g>
						<path d="M13.9,55.2c-0.3,0-0.6-0.1-0.9-0.3l-8.3-5.3c-0.8-0.5-1-1.5-0.5-2.3c0.5-0.8,1.5-1,2.3-0.5l7,4.5L32,27.3l-7.6-6.3        c-0.7-0.6-0.8-1.6-0.2-2.3c0.6-0.7,1.6-0.8,2.3-0.2l8.9,7.3c0.7,0.6,0.8,1.6,0.3,2.3L15.2,54.5C14.8,55,14.4,55.2,13.9,55.2z"></path>
					</g>
				</g>
			</g>
		</g>
	</g>
	<g>
		<g>
			<g>
				<g>
					<g>
						<path d="M40.7,34.9c-0.4,0-0.7-0.1-1-0.4c-1.1-0.9-5.4-1.6-7.9-1.8c-0.9-0.1-1.6-0.9-1.5-1.8c0.1-0.9,0.9-1.6,1.8-1.5        c1.2,0.1,7.4,0.7,9.7,2.6c0.7,0.6,0.8,1.6,0.3,2.3C41.6,34.7,41.2,34.9,40.7,34.9z"></path>
					</g>
				</g>
			</g>
		</g>
	</g>
	<g>
		<g>
			<g>
				<g>
					<g>
						<path d="M19.1,55.2c-0.7,0-1.3-0.4-1.6-1.1l-1.6-4.7c-0.3-0.9,0.2-1.8,1.1-2.1c0.9-0.3,1.8,0.2,2.1,1.1l1.6,4.7        c0.3,0.9-0.2,1.8-1.1,2.1C19.4,55.2,19.2,55.2,19.1,55.2z"></path>
					</g>
				</g>
			</g>
		</g>
	</g>
	<g>
		<g>
			<g>
				<g>
					<g>
						<path d="M42.1,88.2c-1.5,0-3-0.6-4.1-1.7c-1.1-1.1-1.7-2.5-1.7-4.1c0-1.5,0.6-3,1.7-4l2.3-2.3c1.1-1.1,2.5-1.7,4-1.7        c1.5,0,3,0.6,4.1,1.7c1.1,1.1,1.7,2.5,1.7,4c0,1.5-0.6,3-1.7,4l-2.3,2.3C45.1,87.6,43.7,88.2,42.1,88.2z M44.4,77.8        c-0.6,0-1.3,0.3-1.7,0.7l-2.3,2.3c-0.5,0.5-0.7,1.1-0.7,1.7c0,0.6,0.3,1.3,0.7,1.7c0.5,0.5,1.1,0.7,1.7,0.7        c0.6,0,1.3-0.3,1.7-0.7l2.3-2.3c0.5-0.5,0.7-1.1,0.7-1.7c0-0.6-0.3-1.3-0.7-1.7C45.7,78,45.1,77.8,44.4,77.8z"></path>
					</g>
				</g>
			</g>
		</g>
	</g>
	<g>
		<g>
			<g>
				<g>
					<g>
						<path d="M35,81.4c-1.5,0-3-0.6-4.1-1.7c-1.1-1.1-1.7-2.5-1.7-4.1c0-1.5,0.6-3,1.7-4l2.3-2.3c1.1-1.1,2.5-1.7,4-1.7        c1.5,0,3,0.6,4.1,1.7c1.1,1.1,1.7,2.5,1.7,4.1c0,1.5-0.6,3-1.7,4L39,79.7C37.9,80.8,36.5,81.4,35,81.4z M37.3,71        c-0.6,0-1.3,0.3-1.7,0.7L33.3,74c-0.5,0.5-0.7,1.1-0.7,1.7c0,0.6,0.3,1.3,0.7,1.7c0.5,0.5,1.1,0.7,1.7,0.7        c0.6,0,1.3-0.3,1.7-0.7l2.3-2.3c0.5-0.5,0.7-1.1,0.7-1.7c0-0.6-0.3-1.3-0.7-1.7C38.5,71.2,37.9,71,37.3,71z"></path>
					</g>
				</g>
			</g>
		</g>
	</g>
	<g>
		<g>
			<g>
				<g>
					<g>
						<path d="M28.9,75.3c-1.5,0-3-0.6-4.1-1.7c-1.1-1.1-1.7-2.5-1.7-4c0-1.5,0.6-3,1.7-4.1l2.3-2.3c1.1-1.1,2.5-1.7,4-1.7        c1.5,0,3,0.6,4.1,1.7c1.1,1.1,1.7,2.5,1.7,4c0,1.5-0.6,3-1.7,4.1l-2.3,2.3C31.9,74.7,30.4,75.3,28.9,75.3z M31.2,64.9        c-0.6,0-1.3,0.3-1.7,0.7l-2.3,2.3c-0.5,0.5-0.7,1.1-0.7,1.7c0,0.6,0.3,1.2,0.7,1.7c0.5,0.5,1.1,0.7,1.7,0.7        c0.6,0,1.2-0.3,1.7-0.7l2.3-2.3c0.5-0.5,0.7-1.1,0.7-1.7c0-0.6-0.3-1.3-0.7-1.7C32.4,65.1,31.8,64.9,31.2,64.9z"></path>
					</g>
				</g>
			</g>
		</g>
	</g>
	<g>
		<g>
			<g>
				<g>
					<g>
						<path d="M22.5,68.5c-1.5,0-3-0.6-4.1-1.7c-1.1-1.1-1.7-2.5-1.7-4.1c0-1.5,0.6-3,1.7-4l2.3-2.3c1.1-1.1,2.5-1.7,4-1.7        c1.5,0,3,0.6,4.1,1.7c1.1,1.1,1.7,2.5,1.7,4.1c0,1.5-0.6,3-1.7,4l-2.3,2.3C25.4,67.9,24,68.5,22.5,68.5z M24.8,58.1        c-0.6,0-1.3,0.3-1.7,0.7l-2.3,2.3c-0.5,0.5-0.7,1.1-0.7,1.7c0,0.6,0.3,1.3,0.7,1.7c0.5,0.5,1.1,0.7,1.7,0.7        c0.6,0,1.3-0.3,1.7-0.7l2.3-2.3c0.5-0.5,0.7-1.1,0.7-1.7c0-0.6-0.3-1.3-0.7-1.7C26,58.3,25.4,58.1,24.8,58.1z"></path>
					</g>
				</g>
			</g>
		</g>
	</g>
</g>
</svg>