<svg xmlns="http://www.w3.org/2000/svg" xmlns:xlink="http://www.w3.org/1999/xlink" id="Layer_1" x="0px" y="0px" viewBox="0 0 100 100" style="enable-background:new 0 0 100 100;" xml:space="preserve">
<path d="M72,51.7c0.1-0.5,0.2-1.1,0.3-1.6c5.3-4.3,11-8.6,16.9-12.7c0.3-0.2,6.5-4.4,6.5-13.7c0.1-1.1,0.3-8.9-6.2-15.1l-2.3-2.2  l-1.5,2.8c0,0-0.6,1.2-1.9,3.1c-0.1-0.2-0.2-0.4-0.4-0.5c-2.8-3.8-8.6-3.9-9.2-3.9c-7.4,0-10.6,3.6-10.9,4L63.2,12  c-3.5,4.9-7.8,9.8-12.5,14.5c-1.9,0.1-3.1,0.5-3.2,0.5L47,27.2L33.2,39.1c0,0-0.1,0.1-0.1,0.1c-0.8,0.6-1.2,1.8-0.8,2.8  c-8.5,6.2-15.9,10.4-19.7,12.4c-1,0.3-2,0.9-3,1.6c0,0,0,0,0,0c-2.6,2-4.9,5.5-5.2,11.5c0,0.5-0.3,13.2,7,20.7  c3.5,3.6,8,5.4,13.5,5.4c0,0,0,0,0.1,0c0.8,0,6.9-0.2,12.2-7.2c0,0,0.1-0.1,0.1-0.1c0.2-0.3,0.5-0.6,0.7-1  c0.1-0.1,5.6-8.5,18.4-20.9c0.2,0.1,0.4,0.1,0.6,0.1c0.6,0,1.1-0.2,1.6-0.6l0.3-0.3c0.1,0,0.1-0.1,0.2-0.2c0.1-0.1,0.2-0.2,0.2-0.2  c-0.7,7.7-1,23.3,8,30.5c0,0,0.3-4.3,1.3-8.3l7.1,2.5c0,0-12.1-12.3-9.3-30.3c7.9,14.7,20.4,17.3,20.4,17.3L83,67.6  c3.5,0.2,8.5-1.1,8.5-1.1c-6.2-1.7-16.6-9.6-20.9-13l1.3-1.1L72,51.7z M67,14.9c0.2-0.2,2.3-2.2,7.1-2.2c1,0,4.2,0.4,5.4,2  c0.2,0.3,0.8,1.1,0.3,2.9c-3.1,4-7.7,9.2-13.8,14.9c-3.2-3-6.4-4.6-9.3-5.4C60.6,23.2,64,19.1,67,14.9z M41,41.5  c1.3-0.2,2.8-0.4,4.4-0.4c0.3,0,4.2-0.1,7.6,2.3C46,48.7,38.2,53.7,29.9,58.2l-2.4,1.3l1.6,2.2c0,0,1.5,2.1,2.8,5.3  c-0.6,1.2-1.5,2.3-2.5,3.4c-0.1-2.4-0.6-9-4.8-13.1c-1-0.9-2.1-1.7-3.3-2.2C26.6,51.8,33.6,47.3,41,41.5z M24.6,71L24.6,71  c0,2.7-0.8,4-1.6,4.6c0,0,0,0,0,0c0,0-0.1,0.1-0.1,0.1c-0.6,0.4-1.1,0.5-1.4,0.5c-1.4,0-2.5-0.4-3.2-1.1c-0.8-0.8-1.1-2.1-1.3-3  l7.4-4.2C24.6,69.7,24.6,71,24.6,71z M33,83.7c-3.8,4.9-7.9,5-8.1,5c-4.2,0-7.5-1.3-10.1-3.9c-5.9-6-5.7-17.1-5.7-17.1  c0.2-4.3,1.7-6.5,3.1-7.7c0.3-0.2,1.1-0.5,2.2-1.1c0.4-0.1,0.6-0.1,0.7-0.1c2.5-0.2,4.5,0.5,6,1.9c0.7,0.7,1.3,1.6,1.8,2.5  l-10.8,6.2l-0.1,1.3c0,0.5-0.2,4.8,2.6,7.9c1.1,1.2,3.3,2.7,6.8,2.7l0.1,0c1.1,0,2.7-0.5,4.1-1.5c1.1-0.7,4.9-3.3,7.9-6.8  C34.2,76.1,34.2,79.8,33,83.7z M57.6,56.3c-8.9,8.1-15,15-18.8,19.6c-0.3-6.5-2.7-11.9-4.3-14.8c7.8-4.3,15.1-9.1,21.8-14.2  c0.6,1.2,1.1,2.5,1.4,4.2C57.8,51.2,58.2,53.8,57.6,56.3z M67.4,49.8l-4.7,4c0-2-0.2-3.4-0.2-3.5c-2.1-11.5-12.1-14.2-17.2-14  c-0.5,0-1,0-1.4,0l5.4-4.7c1.8-0.4,9-1.2,15.4,6.6C64.8,38.2,68.6,43.4,67.4,49.8z M69.2,36.2c10.3-9.6,16.2-17.7,18.9-21.8  c3,4.4,2.7,8.8,2.7,9l0,0.2c0,6.7-4.2,9.7-4.4,9.8c-4.9,3.4-9.7,7-14.2,10.6C71.6,40.4,70.1,37.6,69.2,36.2z"></path>
</svg>