<svg xmlns="http://www.w3.org/2000/svg" viewBox="0 0 100 100"><path d="M80 94.6H15.8c-5.4 0-9.8-4.4-9.8-9.8V51.3c0-1.1.9-2 2-2s2 .9 2 2v33.5c0 3.3 2.6 5.9 5.9 5.9H80c3.3 0 5.9-2.6 5.9-5.9V75c0-1.1.9-2 2-2s2 .9 2 2v9.8c0 5.4-4.5 9.8-9.9 9.8zM87.9 56.4a2 2 0 01-2-2V40.6c0-3.3-2.6-5.9-5.9-5.9H24.9c-.9 0-2.1 0-3.3 0-2.4 0-5-.1-6.8 0-2.4.1-4.5-.6-6-2.1-2.1-2-3.1-5.2-3-9.7 0-1.1.9-1.9 2-1.9s2 .9 1.9 2c0 3.3.6 5.6 1.8 6.8.8.7 1.8 1 3.1 1 1.9-.1 4.6-.1 7.1 0 1.2 0 2.3 0 3.2 0H80c5.4 0 9.8 4.4 9.8 9.8v13.8c.1 1.1-.8 2-1.9 2z" class="finance_advice_icon_class_a"/><path d="M80.4 33.6a2 2 0 01-2-2v-9.5c0-3.3-2.6-5.9-5.9-5.9H62.3c-1.1 0-2-.9-2-2s.9-2 2-2h10.2c5.4 0 9.8 4.4 9.8 9.8v9.5c.1 1.2-.8 2.1-1.9 2.1zM8 46.3c-.6 0-1.2-.3-1.6-.8-.4-.5-.4-1-.4-1.3V22.1c0-5.4 4.4-9.8 9.8-9.8H41c1.1 0 2 .9 2 2s-.9 2-2 2H15.8c-3.3 0-5.9 2.6-5.9 5.9v21.6c.1.2.1.4.1.5 0 1-.8 1.9-2 2 .1 0 0 0 0 0zM92.2 72.1H74.1c-6.5 0-10.2-3.4-10.2-9.4 0-6.5 5.3-9.5 10.6-9.5h17.8c.5 0 1 .2 1.4.6.4.4.6.9.6 1.4v15c-.1 1.1-1 1.9-2.1 1.9zM74.5 57.2c-1.1 0-6.7.3-6.7 5.5 0 2.6.7 5.5 6.3 5.5h16.1v-11H74.5z" class="finance_advice_icon_class_a"/><path d="M14.7 33c-.6 0-1.3-.3-1.7-.9-.6-.9-.3-2.1.6-2.7l35-22.6c1.8-1.2 6-2.6 9.1.9 0 0 0 .1.1.1l6.5 8.3c.7.9.5 2.1-.3 2.8-.9.7-2.1.5-2.8-.3l-6.5-8.2c-1.5-1.7-3.5-.5-3.9-.2L15.7 32.7c-.3.2-.7.3-1 .3z" class="finance_advice_icon_class_a"/><path d="M23.3 34.7c-.8 0-1.6-.5-1.8-1.3-.4-1 .1-2.2 1.2-2.5l42.1-15.5c2-.8 6.4-1.1 8.6 3.1 0 0 0 .1 0 .1 1 2.3 6 12 6.1 12.1a2 2 0 01-.9 2.7 2 2 0 01-2.7-.9c-.2-.4-5-9.8-6.1-12.3-1.1-2.1-3.4-1.3-3.7-1.2L24 34.6c-.2.1-.4.1-.7.1z" class="finance_advice_icon_class_a"/><path d="M81.2 78.8a2 2 0 01-2-2v-3.5c0-1.1.9-2 2-2s2 .9 2 2v3.5c0 1.2-.9 2-2 2zM77.8 87.2c-1.1 0-1.9-.8-2-1.9 0-1.1.8-2 1.9-2l1.4-.1V82c0-1.1.9-2 2-2s2 .9 2 2v3.2c0 1.1-.8 1.9-1.9 2h-3.4c.1 0 .1 0 0 0zM21.4 87.4a2 2 0 01-2-2c0-1.1.9-2 2-2h6.1a2 2 0 012 2 2 2 0 01-2 2h-6.1c.1 0 0 0 0 0zm14.1 0a2 2 0 01-2-2c0-1.1.9-2 2-2h6.1a2 2 0 012 2 2 2 0 01-2 2h-6.1c.1 0 0 0 0 0zm14.1-.1a2 2 0 01-2-2c0-1.1.9-2 2-2h6.1a2 2 0 012 2 2 2 0 01-2 2h-6.1c.1 0 0 0 0 0zm14.1-.1a2 2 0 01-2-2c0-1.1.9-2 2-2h6.1a2 2 0 012 2 2 2 0 01-2 2h-6.1c.1 0 0 0 0 0zM10.1 87.5a2 2 0 01-2-2c0-1.1.9-2 2-2h3.3a2 2 0 012 2 2 2 0 01-2 2h-3.3c.1 0 0 0 0 0z" class="finance_advice_icon_class_b"/><g><path d="M13.9 42.6h-3.5a2 2 0 01-2-2c0-1.1.9-2 2-2h3.5a2 2 0 012 2c-.1 1.1-1 2-2 2zM70.6 42.6h-6.3a2 2 0 01-2-2c0-1.1.9-2 2-2h6.3a2 2 0 012 2c-.1 1.1-1 2-2 2zm-14.2 0h-6.3a2 2 0 01-2-2c0-1.1.9-2 2-2h6.3a2 2 0 012 2 2 2 0 01-2 2zm-14.2 0h-6.3a2 2 0 01-2-2c0-1.1.9-2 2-2h6.3a2 2 0 012 2 2 2 0 01-2 2zm-14.2 0h-6.3a2 2 0 01-2-2c0-1.1.9-2 2-2H28a2 2 0 012 2 2 2 0 01-2 2zM81.2 45.8a2 2 0 01-2-2v-1.2H78a2 2 0 01-2-2c0-1.1.9-2 2-2h3.2a2 2 0 012 2v3.2a2 2 0 01-2 2zM81.2 56a2 2 0 01-2-2v-3.2c0-1.1.9-2 2-2s2 .9 2 2V54a2 2 0 01-2 2z" class="finance_advice_icon_class_b"/></g></svg>