<svg xmlns="http://www.w3.org/2000/svg" viewBox="0 0 100 100" enable-background="new 0 0 100 100"><style type="text/css">.st0{fill:#1E306E;}</style><path d="M48.2 6h3.6v3.6h-3.6zM85.8 30.6l-7.5-15.8-1-2.1H22.6l-1 2.1-7.5 15.8-.7 1.5.7 1.5 7.5 15.8 1 2.1h25.6v33.3h3.6V51.6h25.6l1-2.1 7.5-15.8.7-1.5-.8-1.6zM75.1 48H24.9l-7.5-15.8 7.5-15.8H75l7.5 15.8L75.1 48zM39.9 26.3h2.9v-2.2h-2.9v-1.8h3.2v-2.1h-5.8v9.7h2.6zM49.1 30.1c1.6 0 2.7-.4 3.5-1.3.8-.9 1.2-2.1 1.2-3.7s-.4-2.9-1.2-3.7c-.8-.9-2-1.3-3.5-1.3-1.6 0-2.7.4-3.5 1.3-.8.9-1.2 2.1-1.2 3.7s.4 2.9 1.2 3.8c.8.7 1.9 1.2 3.5 1.2zm0-7.9c.7 0 1.1.2 1.5.7.3.5.5 1.2.5 2.2 0 1-.2 1.7-.5 2.1-.3.5-.8.7-1.5.7-1.3 0-2-.9-2-2.8 0-2 .7-2.9 2-2.9zM64 29.9l-2.8-4.3c1.1-.6 1.7-1.5 1.7-2.6 0-1.9-1.3-2.9-4-2.9h-3.2v9.8h2.6v-3.6h.7l2.1 3.6H64zm-5.3-5.5h-.5v-2.2h.5c.9 0 1.4.3 1.4 1 0 .8-.5 1.2-1.4 1.2zM37.6 35.8c.7 0 1.5.2 2.4.6l.8-2c-1.1-.5-2.1-.7-3.1-.7-1.1 0-2 .3-2.7.8-.7.5-1 1.2-1 2.1 0 .5.1.9.2 1.2.2.4.4.7.7.9.3.3.8.6 1.4.8.7.3 1.1.5 1.3.6.2.1.3.2.4.3.1.1.1.2.1.4s-.1.4-.3.5c-.2.1-.5.2-.9.2-.5 0-1-.1-1.5-.2-.4-.1-.9-.3-1.4-.5v2.4c.5.2.9.4 1.4.5.4.1 1 .1 1.6.1.8 0 1.5-.1 2-.4.6-.3 1-.6 1.3-1.1.3-.5.5-1 .5-1.6 0-.7-.2-1.2-.5-1.6-.3-.4-.9-.8-1.8-1.2-.9-.4-1.4-.7-1.6-.8-.2-.2-.3-.3-.3-.5s.1-.3.2-.4.5-.4.8-.4zM44.5 33.8l-3.2 9.8h2.9l.5-1.8h3.2l.5 1.8h2.9L48 33.8h-3.5zm.7 5.8c.4-1.5.7-2.6.8-3.1.1-.5.2-.9.2-1.1 0 .2.1.7.3 1.2.1.6.3 1 .4 1.4l.4 1.6h-2.1zM54.9 33.8h-2.6v9.8h6.4v-2.1h-3.8zM60.2 43.6H66v-2.1h-3.1v-1.9h2.9v-2.1h-2.9V36H66v-2.2h-5.8zM84.8 82.9H63.5c.2-1.7.6-3.4 1.2-5.1 1.8-5.6 5-10.7 9.2-14.7l-2.2-2.8c-8.2 4.9-14.3 12.5-17.2 21.6-.1.3-.2.7-.3 1.1h-3.4c-1.5-12.1-11.2-18.2-15.6-20.3l-1.9 3c2.6 2.1 5 5.7 6.4 9.4.9 2.4 1.1 5 1.1 7.9H15.2C9.1 83 4.1 88 4.1 94.1h3.6c0-4.1 3.4-7.5 7.5-7.5h69.7c4.1 0 7.5 3.4 7.5 7.5H96c-.1-6.2-5.1-11.2-11.2-11.2zm-22.7-8.7c-.3.8-.6 1.7-.9 2.5-.7 2.1-1.1 4.1-1.4 6.2h-1.9c1-3.1 2.5-6 4.2-8.7zM43 73.8c-.1-.3-.3-.7-.4-1 2.2 2.6 4 6 4.6 10.2h-2.8c-.1-3.3-.3-6.3-1.4-9.2z" class="st0"/></svg>