<svg xmlns="http://www.w3.org/2000/svg" xmlns:xlink="http://www.w3.org/1999/xlink" id="gym_icon" x="0px" y="0px" viewBox="0 0 100 100" style="enable-background:new 0 0 100 100;" xml:space="preserve">
<path d="M92.6,78.4h-2.7c-0.4-1.3-1.5-2.2-2.9-2.2l-7.3-30.6c0.5-0.5,0.8-1.3,0.8-2.1c0-1.3-0.8-2.4-2-2.9l-3.7-15.6h5.9  c0.1,0,0.2,0,0.3,0c3.2-0.3,6.8-2.4,7.2-6.3c0.2-1.7-1.1-3.2-2.8-3.4c-1.7-0.2-3.2,1.1-3.4,2.8c0,0.3-0.9,0.6-1.5,0.7H71  c-0.9,0-1.8,0.4-2.4,1.2c-0.6,0.7-0.8,1.7-0.6,2.6l4.4,18.4c-0.7,0.6-1.2,1.4-1.2,2.4c0,1.5,1.1,2.7,2.5,3l0.4,1.7l-18.8,7  c-0.4-0.2-0.9-0.4-1.4-0.5c-1-0.4-2.2-0.8-3.5-1.3L48.5,46c0.8-0.6,1.3-1.5,1.3-2.5c0-1.6-1.2-2.8-2.7-3.1L46,36  c3.4-0.6,6.3-1.2,7.2-1.7c2.2-1.1,2.8-4,2.8-5.4c0-2.6-2-4.5-2.4-4.8c-0.5-0.4-1.1-0.7-1.7-0.8c-2.9-0.4-15.7-1.8-16.3-1.9  c-0.7-0.1-1.4,0.1-2,0.5c-0.4,0.3-4.1,2.8-4.1,7.1c0,5.3,4,7.8,6.1,8.4c0.3,0.1,0.5,0.1,0.8,0.1c0.2,0,0.3,0,0.5,0  c0.9-0.1,1.9-0.3,2.9-0.5l1.2,4.6c-0.4,0.5-0.7,1.2-0.7,1.9c0,1.3,0.8,2.4,1.8,2.8l1.1,4.3c-5.8-2.2-11.4-4.4-11.9-4.5  c-1.8-0.5-3.7-0.8-5.7-0.8C14.8,45.4,6,54.2,6,65c0,5.2,2,9.9,5.4,13.4H7.4c-1.7,0-3.1,1.4-3.1,3.1c0,1.7,1.4,3.1,3.1,3.1h85.1  c1.7,0,3.1-1.4,3.1-3.1C95.7,79.8,94.3,78.4,92.6,78.4z M75.5,54.4l0.4,1.8l-15.1,5.6c-0.2-0.6-0.4-1.2-0.7-1.7L75.5,54.4z   M36.9,31.3c-0.4-0.3-1.1-0.9-1.1-2.2c0-0.5,0.3-0.9,0.6-1.3c2.7,0.3,8.5,1,12.2,1.4C45.9,29.8,41.2,30.6,36.9,31.3z M32.3,76.9  c-2.5,1.1-4.4,1.5-6.6,1.5c-7.5,0-13.5-6-13.5-13.4s6.1-13.4,13.5-13.4c1.3,0,2.6,0.2,3.9,0.6c1,0.3,13.8,5.2,22.1,8.5  c0.1,0,0.1,0.1,0.2,0.1c1.9,0.6,3.2,2.3,3.2,4.3c0,1.9-1.3,3.7-3.1,4.3c0,0-0.1,0-0.1,0l-19.5,7.5C32.4,76.8,32.3,76.9,32.3,76.9z   M79.2,78.4H45.6l8.5-3.3c3.2-1.1,5.6-3.6,6.7-6.6l16.6-6.2l3.4,14.2C80,76.9,79.5,77.6,79.2,78.4z M53.2,65c0-1.5-1.2-2.6-2.7-2.6  c-1.5,0-2.7,1.2-2.7,2.6c0,1.5,1.2,2.6,2.7,2.6C52,67.6,53.2,66.5,53.2,65z M25.7,55.2c-5.4,0-9.8,4.4-9.8,9.8s4.4,9.8,9.8,9.8  s9.8-4.4,9.8-9.8S31.1,55.2,25.7,55.2z M25.7,68.5c-2,0-3.5-1.6-3.5-3.5c0-2,1.6-3.5,3.5-3.5c2,0,3.5,1.6,3.5,3.5  C29.3,67,27.7,68.5,25.7,68.5z"></path>
</svg>