<svg xmlns="http://www.w3.org/2000/svg" xmlns:xlink="http://www.w3.org/1999/xlink" id="kitchen_icon" x="0px" y="0px" viewBox="0 0 100 100" style="enable-background:new 0 0 100 100;" xml:space="preserve">
<path d="M85.4,89.3h-8.9v-7.1c0-1.8-1.5-3.3-3.3-3.3c-1.8,0-3.3,1.5-3.3,3.3v7.1h-4.9v-4.4c0-1.8-1.5-3.3-3.3-3.3  c-1.8,0-3.3,1.5-3.3,3.3v4.4h-4.9v-7.1c0-1.8-1.5-3.3-3.3-3.3c-1.8,0-3.3,1.5-3.3,3.3v7.1h-4.9v-4.4c0-1.8-1.5-3.3-3.3-3.3  c-1.8,0-3.3,1.5-3.3,3.3v4.4h-4.9v-7.1c0-1.8-1.5-3.3-3.3-3.3s-3.3,1.5-3.3,3.3v7.1h-8.9c-1.8,0-3.3,1.5-3.3,3.3  c0,1.8,1.5,3.3,3.3,3.3h70.7c1.8,0,3.3-1.5,3.3-3.3C88.7,90.8,87.2,89.3,85.4,89.3z M94.5,33.5c-1.5-1-3.6-0.5-4.6,1  c0,0-0.9,1.3-2.2,2.2v-10c0-8.4-21.5-12.7-34.4-13v-3h3.4c1.8,0,3.3-1.5,3.3-3.3C60,5.5,58.5,4,56.7,4H43.3C41.5,4,40,5.5,40,7.3  c0,1.8,1.5,3.3,3.3,3.3h3.4v3c-10.4,0.3-34.4,4.3-34.4,13v10c-1.3-0.9-2.1-2.1-2.2-2.2c-1-1.5-3-2-4.6-1c-1.5,1-2,3-1,4.6  c0.1,0.2,3,4.6,7.8,5.8v20.8c0,6.3,5.1,11.4,11.4,11.4h52.6c6.3,0,11.4-5.1,11.4-11.4V43.9c4.8-1.2,7.6-5.6,7.8-5.8  C96.4,36.5,96,34.5,94.5,33.5z M81.1,64.7c0,2.6-2.1,4.7-4.8,4.7H23.7c-2.6,0-4.8-2.1-4.8-4.7V36.5h62.1V64.7z M81.1,29.8H18.9v-2.7  c2.2-2.4,16.1-6.8,28.8-6.8h4.6c13.6,0,26.7,4.4,28.8,6.8V29.8z"></path>
</svg>