<svg xmlns="http://www.w3.org/2000/svg" viewBox="0 0 100 100"><path d="M55.3 96.3c-.2 0-.4 0-.6-.1L5.7 74c-.4-.2-.7-.5-.8-.9-.1-.4-.1-.8 0-1.2L35.5 4.6c.3-.8 1.3-1.1 2-.8l49 22.2c.8.3 1.1 1.3.8 2l-2.4 5.4-2.9-1.3 1.8-4L37.6 7.2 8.4 71.9l46.2 20.9L69 61.5l2.8 1.3-15 32.7c-.3.5-.9.8-1.5.8z" class="legal_advise_icon_class"/><path d="M39.05 23.87l1.28-2.82 31.7 14.34-1.27 2.82zM31.77 40.12l1.29-2.81 24.73 11.3-1.29 2.83zM28.13 48.1l1.3-2.81 20.72 9.5-1.3 2.82zM24.51 56.17l1.28-2.83 17.05 7.68-1.28 2.83zM20.63 64.56l1.28-2.83 17.86 8.08-1.28 2.82z" class="legal_advise_icon_class"/><g><path d="M47 73c-1.5 0-4.1-.2-5-1.5-1.5-2.3 1.4-8.6 4.4-10.6 2.7-1.9 37.2-26.8 37.6-27 .7-.5 1.6-.3 2.1.3l5.6 7.7c.2.3.3.7.3 1.1-.1.4-.3.8-.6 1C90 45 57 68.8 53.8 71.1 51.4 72.8 48.5 73 47 73zm-2.4-3.3c.4.1 1.2.3 2.3.3 2 0 3.8-.5 5-1.3 2.9-2 30.2-21.7 36.3-26.2l-3.8-5.2C78.1 41.9 50.5 61.7 48 63.4c-1.8 1.3-3.2 4.9-3.4 6.3z" class="legal_advise_icon_class"/><path d="M89.1 42c-.5 0-.9-.2-1.2-.6-.5-.7-.4-1.6.3-2.1l3.6-2.7-.2-.6-3.9 2.7c-.7.5-1.7.3-2.1-.4-.5-.7-.3-1.7.4-2.1l5.5-3.8c.4-.3.9-.3 1.4-.2.5.1.8.5 1 1l1.2 3.6c.2.6 0 1.3-.5 1.7L90 41.7c-.3.2-.6.3-.9.3z" class="legal_advise_icon_class"/><path d="M74.7 61.1c-.2 0-.3 0-.5-.1l-2-.7c-.8-.3-1.2-1.1-1-1.9.3-.8 1.1-1.2 1.9-1l1.3.4L89 47.2v-4.4c0-.8.7-1.5 1.5-1.6.8 0 1.5.7 1.5 1.5l.1 5.3c0 .5-.2 1-.6 1.3L75.6 60.8c-.2.2-.5.3-.9.3zM64.8 61.7c-.5 0-.9-.2-1.2-.6l-4.9-6.8c-.5-.7-.3-1.6.3-2.1.7-.5 1.6-.3 2.1.3l4.9 6.8c.5.7.3 1.6-.3 2.1-.3.2-.6.3-.9.3zM41.6 73.4c-.5 0-1-.2-1.3-.7-.4-.7-.3-1.7.4-2.1l1.7-1.2c.7-.5 1.7-.3 2.1.4.5.7.3 1.7-.4 2.1l-1.7 1.2c-.2.2-.5.3-.8.3z" class="legal_advise_icon_class"/></g></svg>