<svg xmlns="http://www.w3.org/2000/svg" xmlns:xlink="http://www.w3.org/1999/xlink" id="lift_icon" x="0px" y="0px" viewBox="0 0 100 100" style="enable-background:new 0 0 100 100;" xml:space="preserve">
<path d="M87.1,5H12.9C8,5,4.1,9,4.1,14V86c0,4.9,4,9,8.9,9h74.2c4.9,0,8.9-4,8.9-9V14C95.9,9,92,5,87.1,5z M89.3,86  c0,1.3-1,2.3-2.2,2.3H12.9c-1.2,0-2.2-1-2.2-2.3V14c0-1.3,1-2.3,2.2-2.3h74.2c1.2,0,2.2,1,2.2,2.3V86z M73,24.4  c-0.6-1-1.7-1.7-2.9-1.7s-2.3,0.6-2.9,1.7l-9,15.6c-0.6,1-0.6,2.3,0,3.3c0.6,1,1.7,1.7,2.9,1.7h18c1.2,0,2.3-0.6,2.9-1.7  c0.6-1,0.6-2.3,0-3.3L73,24.4z M66.9,38.4l3.3-5.6l3.3,5.6H66.9z M79.1,55h-18c-1.2,0-2.3,0.6-2.9,1.7c-0.6,1-0.6,2.3,0,3.3l9,15.6  c0.6,1,1.7,1.7,2.9,1.7s2.3-0.6,2.9-1.7L82,60c0.6-1,0.6-2.3,0-3.3C81.4,55.6,80.3,55,79.1,55z M70.1,67.3l-3.3-5.6h6.5L70.1,67.3z   M42.7,32.2c0.8-1.4,1.3-3,1.3-4.7c0-5.2-4.2-9.5-9.5-9.5S25,22.3,25,27.5c0,1.7,0.5,3.3,1.3,4.7c-4.8,0.2-8.7,4.1-8.7,9v14.3  c0,3.8,2.4,7.1,5.7,8.4v9c0,5,4.1,9,9,9h4.3c5,0,9-4.1,9-9v-9c3.3-1.3,5.7-4.6,5.7-8.4V41.2C51.4,36.4,47.5,32.4,42.7,32.2z   M34.5,24.7c1.6,0,2.8,1.3,2.8,2.8s-1.3,2.8-2.8,2.8c-1.6,0-2.8-1.3-2.8-2.8S32.9,24.7,34.5,24.7z M44.7,55.5c0,1.3-1.1,2.4-2.4,2.4  c-1.8,0-3.3,1.5-3.3,3.3v11.7c0,1.3-1.1,2.4-2.4,2.4h-4.3c-1.3,0-2.4-1.1-2.4-2.4V61.2c0-1.8-1.5-3.3-3.3-3.3  c-1.3,0-2.4-1.1-2.4-2.4V41.2c0-1.3,1.1-2.4,2.4-2.4h15.7c1.3,0,2.4,1.1,2.4,2.4V55.5z"></path>
</svg>