<svg xmlns="http://www.w3.org/2000/svg" xmlns:xlink="http://www.w3.org/1999/xlink" id="maximum_choice_icon" x="0px" y="0px" viewBox="0 0 100 100" style="enable-background:new 0 0 100 100;" xml:space="preserve">
<g>
	<g>
		<g>
			<g>
				<g>
					<g>
						<g>
							<g>
								<path d="M24.1,34.9c-0.5,0-0.9-0.2-1.2-0.6c-0.5-0.7-0.3-1.6,0.3-2.1l26.7-19.1c0.5-0.4,1.2-0.4,1.8,0l23.9,17.2          c0.7,0.5,0.8,1.4,0.3,2.1c-0.5,0.7-1.4,0.8-2.1,0.3L50.8,16.2L25,34.6C24.7,34.8,24.4,34.9,24.1,34.9z"></path>
							</g>
						</g>
					</g>
				</g>
			</g>
		</g>
	</g>
	<g>
		<g>
			<g>
				<g>
					<g>
						<g>
							<g>
								<path d="M95.1,53.3h-21c-0.8,0-1.5-0.7-1.5-1.5c0-0.8,0.7-1.5,1.5-1.5h21c0.8,0,1.5,0.7,1.5,1.5          C96.6,52.6,95.9,53.3,95.1,53.3z"></path>
							</g>
						</g>
					</g>
				</g>
			</g>
		</g>
	</g>
	<g>
		<g>
			<g>
				<g>
					<g>
						<g>
							<g>
								<path d="M26.7,53.3H4.9c-0.8,0-1.5-0.7-1.5-1.5c0-0.8,0.7-1.5,1.5-1.5h21.8c0.8,0,1.5,0.7,1.5,1.5          C28.2,52.6,27.5,53.3,26.7,53.3z"></path>
							</g>
						</g>
					</g>
				</g>
			</g>
		</g>
	</g>
	<g>
		<g>
			<g>
				<g>
					<g>
						<g>
							<g>
								<path d="M70.3,87.1h-41c-0.8,0-1.5-0.7-1.5-1.5V34.5c0-0.8,0.7-1.5,1.5-1.5c0.8,0,1.5,0.7,1.5,1.5v49.6h38l-0.3-49.9          c0-0.8,0.7-1.6,1.5-1.6c0,0,0,0,0,0c0.8,0,1.5,0.7,1.5,1.6l0.3,51.4c0,0.4-0.2,0.8-0.4,1.1C71.1,87,70.7,87.1,70.3,87.1z"></path>
							</g>
						</g>
					</g>
				</g>
			</g>
		</g>
	</g>
	<g>
		<g>
			<g>
				<g>
					<g>
						<g>
							<g>
								<path d="M54.9,82.6c-0.8,0-1.5-0.7-1.5-1.5v-8.3h-7.1v8.3c0,0.8-0.7,1.5-1.5,1.5c-0.8,0-1.5-0.7-1.5-1.5v-9.8          c0-0.8,0.7-1.5,1.5-1.5h10.1c0.8,0,1.5,0.7,1.5,1.5v9.8C56.4,82,55.7,82.6,54.9,82.6z"></path>
							</g>
						</g>
					</g>
				</g>
			</g>
		</g>
	</g>
	<g>
		<g>
			<g>
				<g>
					<g>
						<g>
							<g>
								<g>
									<path d="M38.7,44.3c-0.8,0-1.5-0.7-1.5-1.5v-4.1c0-0.8,0.7-1.5,1.5-1.5c0.8,0,1.5,0.7,1.5,1.5v4.1           C40.2,43.6,39.6,44.3,38.7,44.3z"></path>
								</g>
							</g>
						</g>
					</g>
				</g>
			</g>
		</g>
		<g>
			<g>
				<g>
					<g>
						<g>
							<g>
								<g>
									<path d="M50.4,44.3c-0.8,0-1.5-0.7-1.5-1.5v-4.1c0-0.8,0.7-1.5,1.5-1.5c0.8,0,1.5,0.7,1.5,1.5v4.1           C51.9,43.6,51.2,44.3,50.4,44.3z"></path>
								</g>
							</g>
						</g>
					</g>
				</g>
			</g>
		</g>
		<g>
			<g>
				<g>
					<g>
						<g>
							<g>
								<g>
									<path d="M60.9,44.3c-0.8,0-1.5-0.7-1.5-1.5v-4.1c0-0.8,0.7-1.5,1.5-1.5s1.5,0.7,1.5,1.5v4.1C62.4,43.6,61.7,44.3,60.9,44.3           z"></path>
								</g>
							</g>
						</g>
					</g>
				</g>
			</g>
		</g>
	</g>
	<g>
		<g>
			<g>
				<g>
					<g>
						<g>
							<g>
								<path d="M38.7,55.2c-0.8,0-1.5-0.7-1.5-1.5v-3.8c0-0.8,0.7-1.5,1.5-1.5c0.8,0,1.5,0.7,1.5,1.5v3.8          C40.2,54.5,39.6,55.2,38.7,55.2z"></path>
							</g>
						</g>
					</g>
				</g>
			</g>
		</g>
	</g>
	<g>
		<g>
			<g>
				<g>
					<g>
						<g>
							<g>
								<path d="M50.4,55.2c-0.8,0-1.5-0.7-1.5-1.5v-3.8c0-0.8,0.7-1.5,1.5-1.5c0.8,0,1.5,0.7,1.5,1.5v3.8          C51.9,54.5,51.2,55.2,50.4,55.2z"></path>
							</g>
						</g>
					</g>
				</g>
			</g>
		</g>
	</g>
	<g>
		<g>
			<g>
				<g>
					<g>
						<g>
							<g>
								<path d="M38.7,65.7c-0.8,0-1.5-0.7-1.5-1.5v-3.4c0-0.8,0.7-1.5,1.5-1.5c0.8,0,1.5,0.7,1.5,1.5v3.4          C40.2,65,39.6,65.7,38.7,65.7z"></path>
							</g>
						</g>
					</g>
				</g>
			</g>
		</g>
	</g>
	<g>
		<g>
			<g>
				<g>
					<g>
						<g>
							<g>
								<path d="M50.4,65.7c-0.8,0-1.5-0.7-1.5-1.5v-3.4c0-0.8,0.7-1.5,1.5-1.5c0.8,0,1.5,0.7,1.5,1.5v3.4          C51.9,65,51.2,65.7,50.4,65.7z"></path>
							</g>
						</g>
					</g>
				</g>
			</g>
		</g>
	</g>
	<g>
		<g>
			<g>
				<g>
					<g>
						<g>
							<g>
								<g>
									<path d="M60.9,55.2c-0.8,0-1.5-0.7-1.5-1.5v-3.8c0-0.8,0.7-1.5,1.5-1.5s1.5,0.7,1.5,1.5v3.8C62.4,54.5,61.7,55.2,60.9,55.2           z"></path>
								</g>
							</g>
						</g>
					</g>
				</g>
			</g>
		</g>
		<g>
			<g>
				<g>
					<g>
						<g>
							<g>
								<g>
									<path d="M60.9,65.7c-0.8,0-1.5-0.7-1.5-1.5v-3.4c0-0.8,0.7-1.5,1.5-1.5s1.5,0.7,1.5,1.5v3.4C62.4,65,61.7,65.7,60.9,65.7z"></path>
								</g>
							</g>
						</g>
					</g>
				</g>
			</g>
		</g>
	</g>
	<g>
		<g>
			<g>
				<g>
					<g>
						<g>
							<g>
								<path d="M91,87.1H8.3c-0.8,0-1.5-0.7-1.5-1.5V51.8c0-0.8,0.7-1.5,1.5-1.5H29c0.8,0,1.5,0.7,1.5,1.5c0,0.8-0.7,1.5-1.5,1.5          H9.8v30.8h79.7V53.3H72.2c-0.8,0-1.5-0.7-1.5-1.5c0-0.8,0.7-1.5,1.5-1.5H91c0.8,0,1.5,0.7,1.5,1.5v33.8          C92.5,86.5,91.8,87.1,91,87.1z"></path>
							</g>
						</g>
					</g>
				</g>
			</g>
		</g>
	</g>
	<g>
		<g>
			<g>
				<g>
					<g>
						<g>
							<g>
								<g>
									<path d="M80.8,64.6c-0.8,0-1.5-0.7-1.5-1.5v-3.4c0-0.8,0.7-1.5,1.5-1.5c0.8,0,1.5,0.7,1.5,1.5v3.4           C82.3,63.9,81.7,64.6,80.8,64.6z"></path>
								</g>
							</g>
						</g>
					</g>
				</g>
			</g>
		</g>
		<g>
			<g>
				<g>
					<g>
						<g>
							<g>
								<g>
									<path d="M80.8,75.5c-0.8,0-1.5-0.7-1.5-1.5v-3.8c0-0.8,0.7-1.5,1.5-1.5c0.8,0,1.5,0.7,1.5,1.5V74           C82.3,74.8,81.7,75.5,80.8,75.5z"></path>
								</g>
							</g>
						</g>
					</g>
				</g>
			</g>
		</g>
	</g>
	<g>
		<g>
			<g>
				<g>
					<g>
						<g>
							<g>
								<g>
									<path d="M19.6,65c-0.8,0-1.5-0.7-1.5-1.5v-3.4c0-0.8,0.7-1.5,1.5-1.5c0.8,0,1.5,0.7,1.5,1.5v3.4C21.1,64.3,20.4,65,19.6,65           z"></path>
								</g>
							</g>
						</g>
					</g>
				</g>
			</g>
		</g>
		<g>
			<g>
				<g>
					<g>
						<g>
							<g>
								<g>
									<path d="M19.6,75.9c-0.8,0-1.5-0.7-1.5-1.5v-3.8c0-0.8,0.7-1.5,1.5-1.5c0.8,0,1.5,0.7,1.5,1.5v3.8           C21.1,75.2,20.4,75.9,19.6,75.9z"></path>
								</g>
							</g>
						</g>
					</g>
				</g>
			</g>
		</g>
	</g>
</g>
</svg>