<svg xmlns="http://www.w3.org/2000/svg" viewBox="0 0 100 100"><path d="M76.4 5H23.6c-3.8 0-6.9 3.1-6.9 6.9V88c0 3.8 3.1 6.9 6.9 6.9h52.9c3.8 0 6.9-3.1 6.9-6.9V11.9c-.1-3.8-3.2-6.9-7-6.9zm2.7 83.1c0 1.5-1.2 2.7-2.7 2.7H23.6c-1.5 0-2.7-1.2-2.7-2.7V11.9c0-1.5 1.2-2.7 2.7-2.7h52.9c1.5 0 2.7 1.2 2.7 2.7v76.2z"/><path d="M71.6 14.6H28.4c-1.8 0-3.3 1.5-3.3 3.3v16.3c0 1.8 1.5 3.3 3.3 3.3h43.2c1.8 0 3.3-1.5 3.3-3.3V17.8c0-1.7-1.5-3.2-3.3-3.2zm.5 19.5c0 .2-.2.4-.4.4H28.4c-.2 0-.4-.2-.4-.4V17.8c0-.2.2-.4.4-.4h43.2c.2 0 .4.2.4.4v16.3zM30.8 43.5a5.7 5.7 0 105.7 5.7c.1-3.1-2.5-5.7-5.7-5.7zm0 8.6a2.9 2.9 0 110-5.8 2.9 2.9 0 010 5.8zM69.2 43.5a5.7 5.7 0 100 11.4 5.7 5.7 0 000-11.4zm0 8.6a2.9 2.9 0 110-5.8 2.9 2.9 0 010 5.8zM50 43.5a5.7 5.7 0 100 11.4 5.7 5.7 0 000-11.4zm0 8.6a2.9 2.9 0 110-5.8 2.9 2.9 0 010 5.8zM30.8 59a5.7 5.7 0 105.7 5.7c.1-3.2-2.5-5.7-5.7-5.7zm0 8.6a2.9 2.9 0 110-5.8 2.9 2.9 0 010 5.8zM69.2 59a5.7 5.7 0 100 11.4 5.7 5.7 0 000-11.4zm0 8.6a2.9 2.9 0 110-5.8 2.9 2.9 0 010 5.8zM50 59a5.7 5.7 0 105.7 5.7c0-3.2-2.5-5.7-5.7-5.7zm0 8.6a2.9 2.9 0 110-5.8 2.9 2.9 0 010 5.8zM30.8 74.4a5.7 5.7 0 105.7 5.7c.1-3.1-2.5-5.7-5.7-5.7zm0 8.7a2.9 2.9 0 110-5.8 2.9 2.9 0 010 5.8zM69.2 74.4a5.7 5.7 0 100 11.4 5.7 5.7 0 000-11.4zm0 8.7a2.9 2.9 0 110-5.8 2.9 2.9 0 010 5.8zM50 74.4a5.7 5.7 0 100 11.4 5.7 5.7 0 000-11.4zm0 8.7a2.9 2.9 0 110-5.8 2.9 2.9 0 010 5.8z"/><path d="M50.8 26.6h3.3c.4 0 .8-.1 1.2-.2.3-.1.6-.3.9-.5.2-.2.4-.5.5-.8.1-.3.2-.7.2-1 0-.4-.1-.7-.2-1-.1-.3-.3-.6-.5-.8-.2-.2-.5-.4-.9-.5-.3-.1-.7-.2-1.2-.2h-6V23h6c.4 0 .6.1.8.3.2.2.3.5.3.8s-.1.6-.3.8c-.2.2-.5.3-.8.3h-3.3c-.9 0-1.6.2-2.1.6-.5.4-.7 1.1-.7 2v2.6h8.6v-1.6h-7.2v-1.2c.1-.7.6-1 1.4-1zM65.7 25.7c.3-.1.6-.3.9-.6.2-.3.4-.7.4-1.3 0-.4-.1-.7-.2-1-.1-.3-.3-.5-.6-.7-.3-.2-.6-.3-.9-.4-.4-.1-.7-.1-1.2-.1h-6V23h5.6c.5 0 .9.1 1.2.2s.4.5.4.9-.1.7-.3.8c-.2.2-.5.2-1 .2h-3.9v1.3h4c.4 0 .8.1 1 .3.2.2.3.5.3.9s-.2.7-.5.9c-.3.2-.7.3-1.2.3H58v1.6h6.2c.4 0 .8-.1 1.2-.2.4-.1.7-.3.9-.6.3-.2.4-.5.6-.9.1-.3.2-.7.2-1.1 0-.5-.1-1-.4-1.3-.3-.2-.6-.4-1-.6z"/></svg>