<svg version="1.1" id="new_projects_icon" xmlns="http://www.w3.org/2000/svg" xmlns:xlink="http://www.w3.org/1999/xlink" x="0px" y="0px"
	 viewBox="0 0 100 100" style="enable-background:new 0 0 100 100;" xml:space="preserve">
<g>
	<g>
		<g>
			<g>
				<g>
					<g>
						<g>
							<path class="new_projects_icon_class" d="M79.4,56.8C79.4,56.8,79.4,56.8,79.4,56.8c-1.1,0-2-0.9-2-2c0-5,0-13.1,0-13.1l4.1,0c0,0,0,8.1,0,13.1
								C81.4,55.9,80.5,56.8,79.4,56.8z"/>
						</g>
					</g>
				</g>
			</g>
		</g>
		<g>
			<g>
				<g>
					<g>
						<g>
							<path class="new_projects_icon_class" d="M55.1,80.4h-0.4c-1.1,0-2-0.9-2-2c0-1.1,0.9-2,2-2h0.4c1.1,0,2,0.9,2,2C57.1,79.5,56.2,80.4,55.1,80.4z"
								/>
						</g>
					</g>
				</g>
			</g>
		</g>
		<g>
			<g>
				<g>
					<g>
						<g>
							<path class="new_projects_icon_class" d="M20.1,59.2c-1.1,0-2-0.9-2-2V40.9c0-1.1,0.9-2,2-2s2,0.9,2,2v16.3C22.1,58.3,21.2,59.2,20.1,59.2z"/>
						</g>
					</g>
				</g>
			</g>
		</g>
		<g>
			<g>
				<g>
					<g>
						<g>
							<g>
								<path class="new_projects_icon_class" d="M87.1,39c-0.5,0-0.9-0.2-1.3-0.5l-9.2-7.7c-0.9-0.7-1-2-0.3-2.9c0.7-0.9,2-1,2.9-0.3l9.2,7.7
									c0.9,0.7,1,2,0.3,2.9C88.3,38.7,87.7,39,87.1,39z"/>
							</g>
						</g>
					</g>
				</g>
			</g>
			<g>
				<g>
					<g>
						<g>
							<g>
								<path class="new_projects_icon_class" d="M12.8,37.8c-0.6,0-1.2-0.3-1.6-0.8c-0.7-0.9-0.6-2.2,0.3-2.9L48.8,4.3c0.8-0.6,1.8-0.6,2.6,0
									c0.1,0.1,9.7,8.2,18,15.2c0.9,0.7,1,2,0.3,2.9c-0.7,0.9-2,1-2.9,0.3C60.2,17.1,52.9,10.9,50,8.5L14,37.4
									C13.7,37.7,13.2,37.8,12.8,37.8z"/>
							</g>
						</g>
					</g>
				</g>
			</g>
			<g>
				<g>
					<g>
						<g>
							<g>
								<path class="new_projects_icon_class" d="M76.7,29.9c-1.1,0-2-0.9-2-2V9.1c0-1.1,0.9-2,2-2c1.1,0,2,0.9,2,2v18.7C78.7,29,77.8,29.9,76.7,29.9z"
									/>
							</g>
						</g>
					</g>
				</g>
			</g>
			<g>
				<g>
					<g>
						<g>
							<g>
								<path class="new_projects_icon_class" d="M68.1,23c-1.1,0-2-0.9-2-2v-7.7c0-1.1,0.9-2.1,2-2.1c1.1,0,2,0.9,2,2V21C70.2,22.1,69.3,23,68.1,23z"/>
							</g>
						</g>
					</g>
				</g>
			</g>
			<g>
				<g>
					<g>
						<g>
							<g>
								<path class="new_projects_icon_class" d="M79.1,9.1H65.3c-1.1,0-2-0.9-2-2s0.9-2,2-2h13.8c1.1,0,2,0.9,2,2S80.2,9.1,79.1,9.1z"/>
							</g>
						</g>
					</g>
				</g>
			</g>
		</g>
		<g>
			<g>
				<g>
					<g>
						<g>
							<path class="new_projects_icon_class" d="M79.4,43.8c-0.5,0-0.9-0.2-1.3-0.5L50,19.9L21.6,42.6c-0.9,0.7-2.2,0.6-2.9-0.3
								c-0.7-0.9-0.6-2.2,0.3-2.9l29.8-23.8c0.8-0.6,1.8-0.6,2.6,0l29.4,24.5c0.9,0.7,1,2,0.3,2.9C80.6,43.5,80,43.8,79.4,43.8z"/>
						</g>
					</g>
				</g>
			</g>
		</g>
	</g>
	<g>
		<g>
			<g>
				<g>
					<g>
						<g>
							<g>
								<path class="new_projects_icon_class" d="M72.4,96.2C65,96.2,58,92.3,53.7,86l-6.3,0c0,0,0,0,0,0c-0.6,0-1.1-0.2-1.5-0.6l-4.5-4.9l-3.6,2.9
									c-0.8,0.7-2.1,0.6-2.8-0.2l-2.8-3.1l-4.1,3.8c-0.8,0.7-2,0.7-2.8,0l-3.7-3.6l-4.2,3c-0.8,0.6-2,0.5-2.7-0.3l-8.8-9.7
									c-0.7-0.8-0.7-2,0-2.7l7.8-8.5c0.4-0.4,0.9-0.7,1.5-0.7L54,61.5c3.7-4.9,10.3-9.9,18.4-9.9c0,0,0,0,0,0
									c12.2,0,22.2,10,22.2,22.2C94.6,86.1,84.7,96.2,72.4,96.2C72.5,96.2,72.4,96.2,72.4,96.2z M54.9,82c0.7,0,1.4,0.4,1.7,1
									c3.4,5.6,9.6,9.2,15.8,9.2v2l0-2c10,0,18.1-8.2,18.1-18.3c0-10-8.1-18.1-18.1-18.1c-7.1,0-12.9,4.9-15.7,9
									c-0.4,0.6-1,0.9-1.7,0.9l-38.9,0.1l-5.9,6.5l6.3,7l4.1-3c0.8-0.6,1.9-0.5,2.6,0.2l3.5,3.4l4.2-3.9c0.4-0.4,0.9-0.6,1.5-0.5
									c0.5,0,1.1,0.3,1.4,0.7l2.9,3.2l3.6-2.9c0.8-0.7,2-0.6,2.8,0.2l5.2,5.6L54.9,82C54.8,82,54.9,82,54.9,82z"/>
							</g>
						</g>
					</g>
				</g>
			</g>
			<g>
				<g>
					<g>
						<g>
							<g>
								<path class="new_projects_icon_class" d="M79.4,82c-4.3,0-7.8-3.5-7.8-7.8c0-4.3,3.5-7.8,7.8-7.8c4.3,0,7.8,3.5,7.8,7.8c0,2.1-0.8,4.1-2.3,5.5
									C83.5,81.2,81.5,82,79.4,82C79.5,82,79.4,82,79.4,82z M79.4,70.5c-2.1,0-3.8,1.7-3.7,3.8c0,2.1,1.7,3.7,3.7,3.7v2l0-2
									c1,0,1.9-0.4,2.6-1.1c0.7-0.7,1.1-1.7,1.1-2.7C83.2,72.2,81.5,70.5,79.4,70.5z"/>
							</g>
						</g>
					</g>
				</g>
			</g>
		</g>
		<g>
			<g>
				<g>
					<g>
						<g>
							<path class="new_projects_icon_class" d="M10.1,75.3c-1.1,0-2-0.9-2-2c0-1.1,0.9-2,2-2l44-0.1c0,0,0,0,0,0c1.1,0,2,0.9,2,2c0,1.1-0.9,2-2,2
								L10.1,75.3C10.1,75.3,10.1,75.3,10.1,75.3z"/>
						</g>
					</g>
				</g>
			</g>
		</g>
	</g>
</g>
</svg>
