<svg xmlns="http://www.w3.org/2000/svg" xmlns:xlink="http://www.w3.org/1999/xlink" id="pet_icon" x="0px" y="0px" viewBox="0 0 100 100" style="enable-background:new 0 0 100 100;" xml:space="preserve">
<path d="M49.9,20.4c1.4,0,2.5-1.1,2.5-2.5s-1.1-2.5-2.5-2.5c-1.4,0-2.5,1.1-2.5,2.5S48.5,20.4,49.9,20.4z M57.6,26  c1.4,0,2.5-1.1,2.5-2.5c0-1.4-1.1-2.5-2.5-2.5c-1.4,0-2.5,1.1-2.5,2.5C55,24.9,56.2,26,57.6,26z M43,13.3c1.4,0,2.5-1.1,2.5-2.5  c0-1.4-1.1-2.5-2.5-2.5c-1.4,0-2.5,1.1-2.5,2.5C40.4,12.1,41.6,13.3,43,13.3z M95.5,29c-0.2-1.2-1-2.1-2-2.4  C92,26,89,24.3,88.7,22.8c-0.7-3.1-2.9-4.9-4.6-6c0.1-2.4-0.2-5.6-2.9-6.7c-1.2-0.5-4.7-1.9-12.2,8.6c-1.4,2.1-3.4,4.6-5.7,7  c-0.6,0-1.2,0.2-1.7,0.6c-0.8,0.6-1.2,1.5-1.2,2.4c-3.5,3.3-7.2,5.9-10.1,6.1c-1.9,0.2-4.7-0.2-7.9-0.7c-6.9-1-16.3-2.3-25.8,0.8  c-0.8,0.3-1.6,0.6-2.2,0.9c-1.2-1.3-3.1-4.1-4-8.7c-0.3-1.6-1.9-2.7-3.5-2.3c-1.6,0.3-2.7,1.9-2.3,3.5c1.1,5.7,3.6,9.4,5.3,11.4  c-1.7,2.5-2.1,5.1-2.4,6.8C6.6,51.3,8.3,55.6,9.7,59c0.7,1.8,1.4,3.4,1.4,4.6c0,0.3-0.4,1.3-0.6,1.9c-1.1,3-3.1,8-0.8,15.6  c1.7,5.5,3.9,8.8,6.8,10c1.3,0.6,3.5,0.9,6.1-0.4c4.3-2.3,4.3-6.2,3.3-8.2c-0.1-0.2-0.2-0.4-0.3-0.5c-0.4-0.5-3.4-4.5,0.5-8  c7-6.2,7.4-13.3,7.4-13.6c0-0.2,0-0.2,0-0.3c0-0.2,0.2-0.3,0.4-0.4c0.5-0.3,3.5-1.8,14,2c4.8,2.5,7.4,6.8,7.6,12.7  c0.4,8.8,3.6,13.4,6.3,15.7c1.2,1,4.1,1.8,6.9,1.8c2.3,0,4.5-0.5,5.8-1.9c0.5-0.5,2.8-3.3-0.9-7.1c-2.9-3.1-3.4-9.8-1.3-19  c6.7-4.2,5.7-14,5.5-15.7c0-1.8,0.2-4.1,0.7-6c0.8-0.3,1.5-0.9,1.8-1.8c0.3-0.7,0.2-1.5-0.1-2.2c0.1-0.1,0.1-0.1,0.2-0.2  c0.1-0.1,0.4-0.3,1.4,0.1c5.1,2.2,8.5,0.4,10-0.8C94.6,35,95.9,30.9,95.5,29z M71.8,48.4c0,0.1,0,0.3,0,0.4c0,0.1,1.1,8.3-3.4,10.3  c-0.8,0.4-1.5,1.1-1.7,2c-2.8,11.4-2.3,19.7,1.6,24.7c-1.1,0-2.2-0.2-2.8-0.5c-2.4-2.2-3.9-6.1-4.1-11.3  C61,63.7,55.2,58.6,50.4,56.2c-0.1-0.1-0.2-0.1-0.3-0.1c-9.8-3.5-16.3-3.9-19.9-1.1c-2,1.5-2.6,3.7-2.6,5.2  c-0.1,0.7-0.8,5.2-5.4,9.4c-6.1,5.4-4,12.1-1.7,15.4c-0.1,0.1-0.3,0.3-0.6,0.4c-0.6,0.3-0.9,0.2-1,0.2c-0.3-0.1-1.8-1-3.4-6.2  c-1.7-5.6-0.4-9,0.6-11.7c0.6-1.5,1.1-2.8,1-4.3c-0.1-2.2-0.9-4.3-1.8-6.5c-1.2-3-2.4-6.2-1.9-9.5c0.6-3.7,1.5-5.6,5.1-6.8  c8.2-2.7,16.5-1.5,23.1-0.6c3.6,0.5,6.7,0.9,9.3,0.7c4.4-0.4,9-3.5,12.9-7c2,2.1,5.1,4.8,9,6.9C71.8,43.9,71.8,47.4,71.8,48.4z   M87.7,32.8c-0.9,0.5-2.1,0.5-3.7-0.2C80.8,31.2,78.4,32,77,33c-0.8,0.5-1.5,1.2-2,2c-3-1.7-5.4-3.9-7.1-5.6  c3.2-3.5,5.4-6.5,5.9-7.3c1.3-1.9,3-3.7,4.2-5c0,0.3-0.1,0.6-0.1,1c-0.2,1.4,0.7,2.8,2,3.2c0,0,2.5,0.9,3,2.8c0.8,3.4,4,5.7,6.3,6.9  C88.9,31.7,88.4,32.4,87.7,32.8z"></path>
</svg>