<svg xmlns="http://www.w3.org/2000/svg" xmlns:xlink="http://www.w3.org/1999/xlink" id="Layer_1" x="0px" y="0px" viewBox="0 0 100 100" style="enable-background:new 0 0 100 100;" xml:space="preserve">
<g>
	<path d="M88.6,16.7H59.8v-10C59.8,5.8,59,5,58.1,5H42.3c-0.9,0-1.7,0.8-1.7,1.7v10H11.4c-4.5,0-8.2,3.7-8.2,8.2v27.5   c0,4.5,3.7,8.2,8.2,8.2h77.3c4.5,0,8.2-3.7,8.2-8.2V24.9C96.9,20.4,93.2,16.7,88.6,16.7z M44,8.4h12.4v8.2H44V8.4z M93.4,52.4   c0,2.7-2.2,4.8-4.8,4.8H11.4c-2.7,0-4.8-2.2-4.8-4.8V24.9c0-2.7,2.2-4.8,4.8-4.8h77.3c2.7,0,4.8,2.2,4.8,4.8V52.4z"></path>
	<path d="M58.1,62.4c-0.9,0-1.7,0.8-1.7,1.7v27.5H44V64.4c0-0.9-0.8-1.7-1.7-1.7c-0.9,0-1.7,0.8-1.7,1.7v28.8c0,0.9,0.8,1.7,1.7,1.7   h15.8c0.9,0,1.7-0.8,1.7-1.7V64.1C59.8,63.1,59,62.4,58.1,62.4z"></path>
	<path d="M28,38.8c-1.1-0.8-2.3-1.3-5.4-2l0,0c-1.9-0.5-4-1-4-2.9c0-1.3,1.3-2.7,3.7-2.7c1,0,2,0.3,2.6,0.7c0.7,0.5,0.9,1,1.2,1.8   c0.2,0.6,0.5,1.5,1.6,1.5c0.9,0,1.5-0.8,1.5-1.6c0-0.7-0.3-1.6-0.7-2.2c-1.4-2.4-4.1-2.9-6.2-2.9c-3.4,0-6.9,1.7-6.9,5.6   c0,1.6,0.7,3,1.9,4c1.3,1,2.3,1.2,5.8,2c1.9,0.4,3.6,1.1,3.6,3.1c0,2.1-2.2,3.3-4.5,3.3c-3.2,0-3.9-2-4.3-2.9   c-0.5-1.3-0.7-1.9-1.7-1.9c-0.8,0-1.5,0.7-1.5,1.4c0,1.3,0.7,3,1.8,4.1c1.6,1.6,4,2,5.7,2c5.2,0,7.5-3.2,7.5-6.3   C29.9,41.6,29.3,39.8,28,38.8z"></path>
	<path d="M41.4,28.4c-7,0-9.5,5.3-9.5,10.3c0,5,2.5,10.3,9.6,10.3c6.9,0,9.4-5.6,9.4-10.3C50.9,34,48.4,28.4,41.4,28.4z M41.4,31.2   c0.6,0,6.2,0.2,6.2,7.6c0,7.3-5.6,7.6-6.2,7.6c-3.6,0-6.2-3-6.2-7.2c0-1,0.1-4.3,1.9-6C38,32.2,39.4,31.2,41.4,31.2z"></path>
	<path d="M65.1,46h-7.9V30.9c0-1.3-0.2-2.5-1.7-2.5c-1.5,0-1.6,1.2-1.6,2.5v15.3c0,2.1,0.4,2.5,2.5,2.5H65l0.2,0   c0.7,0,1.9,0,1.9-1.4C67.1,46,65.8,46,65.1,46z"></path>
	<path d="M76.6,28.8h-4.7c-2.2,0-2.5,0.4-2.5,2.5v14.7c0,2.3,0.2,2.8,2.5,2.8h4.7c1.2,0,3.7,0,5.8-1.5c2.9-2.1,3.5-5.8,3.5-8.6   c0-3.1-0.7-5.5-2.2-7.3C81.5,28.8,78.4,28.8,76.6,28.8z M82.6,38.9c0,1.1-0.1,3.7-1.5,5.3c-1.3,1.5-2.6,1.8-4.9,1.8h-3.6V31.5h3.5   c2.7,0,4,0.4,5,1.8C81.8,34.3,82.6,36.2,82.6,38.9z"></path>
</g>
</svg>