<svg xmlns="http://www.w3.org/2000/svg" viewBox="0 0 100 100"><path d="M57.6 43.5a4.9 4.9 0 10.02 9.82 4.9 4.9 0 00-.02-9.82zm0-10c-8.2 0-15 6.7-15 15 0 8.2 6.7 15 15 15s15-6.7 15-15-6.7-15-15-15zm0 23.3c-4.6 0-8.4-3.8-8.4-8.4S53 40 57.6 40s8.4 3.8 8.4 8.4-3.7 8.4-8.4 8.4zm-33.4-21c-1.8 0-3.3 1.5-3.3 3.3v18.7c0 1.8 1.5 3.3 3.3 3.3s3.3-1.5 3.3-3.3V39.1c0-1.8-1.5-3.3-3.3-3.3zM86.6 4H13.4c-4.8 0-8.7 4-8.7 8.8V84c0 4.9 3.9 8.8 8.7 8.8h6.1a3.3 3.3 0 003.3 3.2h10.5c1.8 0 3.2-1.4 3.3-3.2h26.9a3.3 3.3 0 003.3 3.2h10.5c1.8 0 3.2-1.4 3.3-3.2h6.1c4.8 0 8.7-4 8.7-8.8V12.9C95.3 8 91.4 4 86.6 4zm2.2 18.6a3.3 3.3 0 00-3.1 3.3v11.2c0 1.8 1.4 3.2 3.1 3.3v16.2a3.3 3.3 0 00-3.1 3.3V71c0 1.8 1.4 3.2 3.1 3.3V84c0 1.3-1 2.3-2.2 2.3H13.4c-1.2 0-2.2-1-2.2-2.3V12.9c0-1.3 1-2.3 2.2-2.3h73.2c1.2 0 2.2 1 2.2 2.3v9.7z"/></svg>