<svg xmlns="http://www.w3.org/2000/svg" viewBox="0 0 100 100"><path d="M84.1 54.8c1-1.4.7-3.4-.8-4.4l-1.2-.8-5.5 3.9 3 2.1c1.5 1 3.5.7 4.5-.8zM47.1 74.6c-1.9 1.4-4.6.9-6-1L38 69.3v9.3h12.6V72l-3.5 2.6zM53 70.4v8.2h3.9v-11zM31.9 60.7v17.9h3.8V66zM44.5 31l4.3 3 5.5-3.9-7.9-5.5c-1.1-.8-2.6-.8-3.7 0L17.1 42.4l-11.5 8c-1.4 1-1.8 3-.8 4.4 1 1.4 3 1.8 4.4.8l11.5-8L44.5 31zM25.4 27h-8.6v12.5l8.6-6z" class="dt-skin-primary-color"/><path d="M95.4 34.9L81.7 15.7c-.5-.8-1.6-.9-2.4-.4L30 50.6c-.8.5-.9 1.6-.4 2.4l13.7 19.2c.5.8 1.6.9 2.4.4L95 37.3c.8-.6 1-1.6.4-2.4zM45 68.7L33.3 52.3 80 19.1l11.7 16.4L45 68.7z" class="dt-skin-primary-color"/><path d="M52.4 51.3c-.7-.2-1.5-.1-2.5.2-.5.2-.9.3-1.3.5s-.8.4-1.3.5c-.7.3-1.2.4-1.5.4a.9.9 0 01-.8-.4c-.1-.2-.2-.4-.1-.6 0-.2.1-.4.2-.6.1-.2.3-.4.5-.6.2-.2.4-.4.6-.5.6-.4 1.3-.8 2.1-1 .8-.2 1.5-.3 2.1-.2l.3-.2-1.7-2.4c-.6.1-1.3.4-2.1.7-.8.3-1.5.7-2.2 1.2-1.4 1-2.3 2-2.7 3.3-.4 1.2-.3 2.3.4 3.3.5.7 1.1 1.2 1.8 1.4.7.2 1.6.2 2.7-.2.5-.1 1-.3 1.4-.5.5-.2 1-.4 1.4-.6.4-.2.8-.2 1.1-.2.3 0 .5.2.7.4.2.2.2.5.2.7 0 .2-.1.4-.3.7-.1.2-.3.4-.6.6-.2.2-.5.4-.6.5-.6.4-1.4.8-2.2 1-.9.2-1.7.3-2.6.3l1.7 2.5c.7-.2 1.4-.4 2.2-.7.7-.3 1.5-.7 2.4-1.3 1.5-1 2.4-2.2 2.9-3.4.4-1.2.3-2.4-.4-3.4-.5-.8-1.1-1.3-1.8-1.4zM59.6 50.7l-1.8-2.6 4.5-3.1-1.4-2-4.5 3.1-1.3-1.8 4.9-3.4-1.4-2-7.6 5.3 7.3 10.4 7.5-5.3-1.4-2zM69.3 43.8l-5.8-8.3-2.7 1.9 7.3 10.3 7.5-5.2-1.5-2zM72.6 29.1L69.9 31l7.3 10.4 7.5-5.3-1.5-2-4.8 3.4z" class="dt-skin-primary-color"/><path d="M86.8 62.9c-1.1 0-1.9.9-1.9 1.9v2.9H82v-2.9a1.9 1.9 0 10-3.8 0v2.9h-2.8V54.8l-.3-.2-3.6 2.6v24H17.4v-3.5H22V62.9h-4.6V52.1l-3.9 2.7v28.3c0 1.1.9 1.9 1.9 1.9h58c1.1 0 1.9-.9 1.9-1.9V71.5h2.8V85H82V71.5h2.8V85h3.8V64.8c.1-1.1-.8-1.9-1.8-1.9z" class="dt-skin-primary-color"/></svg>