<svg xmlns="http://www.w3.org/2000/svg" viewBox="0 0 100 100"><path d="M37.5 68.7c1 1 2 1.7 2.9 2 .4.1.7.2 1.1.2.3 0 .6 0 .9-.1 1.2-.4 2.2-1.3 2.4-1.5 0 0 .1-.1.1-.1.1-.1.1-.1.2-.2.8-1 5.5-5.8 12.7-6.1 3.4-.2 8.5.7 13.8 5.7a3.3 3.3 0 004.6-.1 3.3 3.3 0 00-.1-4.6c-6.7-6.3-13.5-7.6-18.1-7.4V17.3c0-6.2-5-11.2-11.2-11.2h-.2c-6.2 0-11.2 5-11.2 11.2 0 1.8 1.4 3.2 3.2 3.2s3.2-1.4 3.2-3.2c0-2.6 2.2-4.8 4.8-4.8h.2c2.6 0 4.8 2.2 4.8 4.8v9.6H29.1v-9.6c0-6.2-5-11.2-11.2-11.2h-.2c-6.2 0-11.2 5-11.2 11.2 0 1.8 1.4 3.2 3.2 3.2 1.8 0 3.2-1.4 3.2-3.2 0-2.6 2.2-4.8 4.8-4.8h.2c2.6 0 4.8 2.2 4.8 4.8v39.1c-9.3.8-15.3 7-16.5 8.3-1.2 1.3-1 3.4.3 4.5 1.3 1.2 3.4 1 4.5-.3.9-1 5.6-6 12.9-6.2 3.4 0 8.5.9 13.6 6zm-8.4-35.3h22.4v8.8H29.1v-8.8zm0 23.2v-8h22.4v8.9s0 0 0 .1a26.1 26.1 0 00-10 6c-4.3-4.1-8.6-6-12.4-6.7-.1-.1 0-.2 0-.3zm64.4 24c-1.4-1.1-3.4-.9-4.5.4-.8 1-5.1 5.8-12.1 6.2-3.4.2-8.5-.6-13.9-5.7-1.1-1-4.5-4.2-8.3-.5-.1.1-.1.1-.2.2-1.2 1.3-5.6 5.8-12.3 6.1-.2 0-.5 0-.7 0-3.2 0-8-1-12.9-5.9a3.2 3.2 0 00-4.6 0 3.2 3.2 0 000 4.6c6.5 6.5 13.1 7.8 17.5 7.8.3 0 .7 0 1 0 8.1-.4 13.8-5.1 16.1-7.5 7 6.6 14 7.6 18.6 7.3 9.7-.6 15.6-7.2 16.7-8.6 1.1-1.2 1-3.2-.4-4.4zm-62.8-3.2c3.3 3.3 6.9 5 10.7 5 .2 0 .4 0 .6 0 5.8-.3 9.6-4.4 10.2-5.2.2-.3 2.7-2.8 6-2.9 2.2-.1 4.5 1 6.8 3.1 3.7 3.4 7.6 5.1 11.6 4.8 5.9-.4 9.5-4.6 9.9-5.1 1.1-1.4.9-3.4-.4-4.5-1.4-1.1-3.4-1-4.5.4 0 0-2.3 2.6-5.4 2.8-2.2.1-4.4-.9-6.7-3.1-3.6-3.4-7.5-5-11.5-4.8-6.2.3-10.3 4.8-10.5 5.1 0 0-2.4 2.8-5.7 2.9-2.1.1-4.2-1-6.4-3.1-3.5-3.5-7.3-5.1-11.3-5-6.3.2-10.5 5-10.7 5.2-1.2 1.3-1 3.3.3 4.5 1.3 1.2 3.4 1.1 4.5-.3 0 0 2.7-2.9 6.1-3 2.1 0 4.3 1.1 6.4 3.2z"/></svg>