<svg xmlns="http://www.w3.org/2000/svg" xmlns:xlink="http://www.w3.org/1999/xlink" id="wifi_icon" x="0px" y="0px" viewBox="0 0 100 100" style="enable-background:new 0 0 100 100;" xml:space="preserve">
<path d="M24.2,60.8c-1.5,0-2.8,1.2-2.8,2.8c0,1.5,1.2,2.8,2.8,2.8c1.5,0,2.8-1.2,2.8-2.8C27,62,25.8,60.8,24.2,60.8z M75.8,60.8  c-1.5,0-2.8,1.2-2.8,2.8c0,1.5,1.2,2.8,2.8,2.8c1.5,0,2.8-1.2,2.8-2.8C78.5,62,77.3,60.8,75.8,60.8z M37.1,60.8  c-1.5,0-2.8,1.2-2.8,2.8c0,1.5,1.2,2.8,2.8,2.8c1.5,0,2.8-1.2,2.8-2.8C39.9,62,38.6,60.8,37.1,60.8z M84.2,43.6h-0.4l3.1-12  c0.2-0.8,0.1-1.7-0.3-2.4l5.2-20.4c0.3-1.2-0.4-2.5-1.7-2.8c-1.2-0.3-2.5,0.4-2.8,1.7L82.2,28c-0.7,0.4-1.2,1.1-1.5,1.9l-3.5,13.6  H22.8l-3.5-13.6c-0.2-0.8-0.8-1.5-1.5-1.9L12.6,7.6c-0.3-1.2-1.6-2-2.8-1.7c-1.2,0.3-2,1.6-1.7,2.8l5.2,20.4  c-0.4,0.7-0.5,1.6-0.3,2.4l3.1,12h-0.4c-5.7,0-10.4,4.7-10.4,10.4v30.4c0,0.3,0,0.5,0.1,0.8c0.7,5.1,5,9,10.3,9h68.4  c5.2,0,9.6-3.9,10.3-9c0.1-0.3,0.1-0.5,0.1-0.8V54C94.6,48.2,89.9,43.6,84.2,43.6z M84.2,87.7H15.8c-2.2,0-4-1.8-4-4  c0-2.2,1.8-4,4-4h68.4c2.2,0,4,1.8,4,4C88.2,85.9,86.4,87.7,84.2,87.7z M88.2,74.1c-1.2-0.5-2.6-0.8-4-0.8H15.8  c-1.4,0-2.7,0.3-4,0.8V54c0-2.2,1.8-4,4-4h68.4c2.2,0,4,1.8,4,4V74.1z M62.9,60.8c-1.5,0-2.8,1.2-2.8,2.8c0,1.5,1.2,2.8,2.8,2.8  c1.5,0,2.8-1.2,2.8-2.8C65.6,62,64.4,60.8,62.9,60.8z M50,60.8c-1.5,0-2.8,1.2-2.8,2.8c0,1.5,1.2,2.8,2.8,2.8c1.5,0,2.8-1.2,2.8-2.8  C52.8,62,51.5,60.8,50,60.8z"></path>
</svg>