<svg xmlns="http://www.w3.org/2000/svg" viewBox="0 0 100 100" enable-background="new 0 0 100 100"><style type="text/css">.st0{fill:#1E306E;}</style><path d="M38.2 47.1v3H62V39.8h1.9v-6.9l-1.4-.9-10.9-6.5-1.5-.9-1.5.9L37.8 32l-1.4.9v6.9h1.9v7.3zm14.1 0h-4.4v-7.4h4.4v7.4zM39.2 34.6L50 28.1l10.9 6.5v2.2H59v10.3h-3.7V36.7H44.9v10.4h-3.7V36.9h-1.9v-2.3zM26 17.2h-3v69.5h54.1V17.2H26zm48.2 66.5H26V20.2h48.1v63.5zM29.9 56.2h40.4v3H29.9zM29.9 62.2h40.4v3H29.9zM29.9 68.1h40.4v3H29.9zM29.9 77.1h12.2v3H29.9zM58.1 77.1h12.2v3H58.1zM90.3 17v-.5c0-2.6-2.1-4.7-4.7-4.7H85c-2.6 0-4.7 2.1-4.7 4.7v35.9l1.6 7.6h1.9v3.2h3V60h1.9l1.6-7.7V20h1.4v8.8h3V17h-4.4zm-4 40h-2l-1-4.7h4l-1 4.7zm1-7.7h-4.1V20h4.1v29.3zm0-32.3h-4.1v-.5c0-1 .8-1.8 1.8-1.8h.6c1 0 1.8.8 1.8 1.8v.5zM13.1 55c-4.3 0-7.8 3.5-7.8 7.7 0 3.8 2.7 6.9 6.3 7.6v17.8h3v-1.4h3.8v-3h-1.7V81h-2.1V70.4c3.6-.7 6.3-3.8 6.3-7.6-.1-4.3-3.6-7.8-7.8-7.8zm0 12.6c-2.6 0-4.8-2.1-4.8-4.8 0-2.6 2.1-4.8 4.8-4.8 2.6 0 4.8 2.1 4.8 4.8 0 2.6-2.2 4.8-4.8 4.8zM13.1 59.7c-.8 0-1.5.7-1.5 1.5s.7 1.5 1.5 1.5 1.5-.7 1.5-1.5c0-.9-.7-1.5-1.5-1.5z" class="st0"/></svg>