<svg xmlns="http://www.w3.org/2000/svg" xmlns:xlink="http://www.w3.org/1999/xlink" id="Layer_1" x="0px" y="0px" viewBox="0 0 100 100" style="enable-background:new 0 0 100 100;" xml:space="preserve">
<g>
	<path d="M73.6,87.4H44.1V63.8c0-1.1-0.9-2-2-2H26.4c-1.1,0-2,0.9-2,2v23.6h-9.8V46.9L48,13.4l18.3,18.3l2.8-2.8L49.4,9.2   c-0.8-0.8-2-0.8-2.8,0L32.3,23.6v-11c0-1.1-0.9-2-2-2h-9.8c-1.1,0-2,0.9-2,2v24.8L3.3,52.5l2.8,2.8l4.5-4.5v38.6c0,1.1,0.9,2,2,2   h13.8c1.1,0,2-0.9,2-2V65.8h11.8v23.6c0,1.1,0.9,2,2,2h33.5c1.1,0,2-0.9,2-2V77.6h-3.9V87.4z M22.4,14.6h5.9v13l-5.9,5.9V14.6z"></path>
	<path d="M96.7,84l-14-14c4.1-3.8,6.7-9.2,6.7-15.2c0-11.4-9.3-20.7-20.7-20.7S48,43.5,48,54.9s9.3,20.7,20.7,20.7   c4,0,7.7-1.1,10.8-3.1l14.3,14.3L96.7,84z M52,54.9c0-9.2,7.5-16.7,16.7-16.7s16.7,7.5,16.7,16.7s-7.5,16.7-16.7,16.7   S52,64.2,52,54.9z"></path>
</g>
</svg>