<svg xmlns="http://www.w3.org/2000/svg" viewBox="0 0 100 100"><path d="M83.7 94.2H15.9c-1.4 0-2.5-1.1-2.5-2.5V48.5c0-1.4 1.1-2.5 2.5-2.5s2.5 1.1 2.5 2.5v40.6h62.7l.2-39.7c0-1.4 1.1-2.5 2.5-2.5s2.5 1.1 2.5 2.5l-.2 42.2c.1 1.5-1 2.6-2.4 2.6zM92.7 46.6c-.6 0-1.2-.2-1.6-.6l-10.6-8.9c-1.1-.9-1.2-2.5-.3-3.6.9-1.1 2.5-1.2 3.6-.3l10.6 8.9c1.1.9 1.2 2.5.3 3.6-.6.6-1.3.9-2 .9zM7.3 45.3c-.7 0-1.5-.3-2-.9-.9-1.1-.7-2.7.4-3.6L48.5 6.4c.9-.8 2.3-.7 3.2 0 .1.1 11.1 9.4 20.6 17.4 1.1.9 1.2 2.5.3 3.6-.9 1.1-2.5 1.2-3.6.3-7.4-6.2-15.6-13.2-19.1-16.1l-41 33.1c-.5.4-1 .6-1.6.6z" class="home_loan_icon_class_a"/><path d="M80.8 36.4c-1.4 0-2.5-1.1-2.5-2.5V12c0-1.4 1.1-2.5 2.5-2.5s2.5 1.1 2.5 2.5v21.8a2.5 2.5 0 01-2.5 2.6zM70.7 28.2c-1.4 0-2.5-1.1-2.5-2.5v-9.1c0-1.4 1.1-2.5 2.5-2.5s2.5 1.1 2.5 2.5v9.1c0 1.4-1.1 2.5-2.5 2.5z" class="home_loan_icon_class_a"/><path d="M83.4 12.5H67.7c-1.4 0-2.5-1.1-2.5-2.5s1.1-2.5 2.5-2.5h15.7c1.4 0 2.5 1.1 2.5 2.5s-1.1 2.5-2.5 2.5z" class="home_loan_icon_class_a"/><g><path d="M83.8 52.1c-.6 0-1.1-.2-1.6-.6L50.1 24.7l-32.6 26c-1.1.9-2.7.7-3.6-.4-.9-1.1-.7-2.7.4-3.6l34.2-27.3c.9-.8 2.3-.7 3.2 0l33.7 28.2c1.1.9 1.2 2.5.3 3.6-.4.6-1.1.9-1.9.9z" class="home_loan_icon_class_a"/></g><path d="M58.9 62.1c-1.8-1.5-5.3-2.7-7-3.2V48c2.3.5 3.2 2.2 3.9 4.1.3.8.8 2 2.4 2 1.6 0 2.5-1.4 2.5-2.4 0-1.4-.9-3.4-2.3-5-2.2-2.5-5-3-6.6-3.2v-2.1c0-2-1.1-2.3-1.7-2.3-.5 0-1.7.2-1.7 2.3v2c-1.4.1-3.5.4-5.7 1.9-.9.6-3.8 2.9-3.8 7.7 0 1.6.4 5.6 4 7.7 1.6.9 3.8 1.6 5.5 2.1v12.1c-3.1-.7-4.4-2.7-5.3-5.9-.2-.6-.6-2.1-2.5-2.1-1.2 0-2.5 1-2.5 2.5 0 2.9 2.5 9.1 10.3 9.8v5c0 1.7 0 3.2 1.7 3.2 1.4 0 1.7-1.1 1.7-3.1v-5.2c9.5-1.2 10-8.9 10-10.4.1-2.5-.9-5-2.9-6.6zM57 69.4c0 1.4-.5 4.8-5.1 5.8V64c2.6.8 5.1 1.9 5.1 5.4zM43.8 53c0-4.2 3.4-5 4.7-5.2v10.1c-2.7-.8-4.7-1.8-4.7-4.9z" class="home_loan_icon_class_b"/></svg>