<svg xmlns="http://www.w3.org/2000/svg" viewBox="0 0 100 100"><path d="M49.2 62.5c.3.5.8.9 1.4.9.6 0 1.2-.3 1.4-.9.1-.2 9.2-16.6 13-22.9.2-.3.4-.7.7-1 1.7-2.6 4.2-6.4 4.2-12.9C69.9 16.1 61.1 8 50.7 8c-4.8 0-9.4 1.9-12.9 5.3s-5.4 8-5.4 12.8c0 4.9 2 10.6 5.4 15.6 1.6 2.4 4.2 7.3 11.4 20.8zm1.5-51.1c8.5 0 15.9 6.8 15.9 14.4 0 5.5-2.1 8.7-3.6 11.1-.3.4-.5.8-.7 1.1-2.9 4.8-8.8 15.4-11.6 20.3-6.2-11.6-8.7-16.1-10.3-18.5-3-4.4-4.8-9.4-4.8-13.7 0-8.1 6.8-14.7 15.1-14.7z"/><path d="M49.4 35.7v4.4c0 .9.7 1.6 1.6 1.6.9 0 1.6-.7 1.6-1.6v-4.4c3.6-.7 6.6-3.5 7.3-7.2l.3-1.6-3.2-.6-.3 1.6c-.5 2.6-2.8 4.6-5.5 4.7-.1 0-.2 0-.3 0-.1 0-.2 0-.3 0-3.1-.1-5.5-2.7-5.5-5.8a5.8 5.8 0 0110.4-3.5l1 1.3 2.6-2-1-1.3a9.13 9.13 0 00-16.4 5.5c.3 4.4 3.5 8.2 7.7 8.9zM95.8 90.5l-8.2-33.9v-.3h-.1L85.3 47c-.2-.7-.8-1.3-1.6-1.3h-7.4c-.2 0-.3 0-.5 0H64.2V49h9.5l-2.3 7.2H58.6v3.3h11.7l-4.8 14.9c-.1.4-.1.8.1 1.2H30.3v-16h13.5v-3.3H30.3V49h7.9v-3.3H18.5c-.7 0-1.4.5-1.6 1.2L5.1 91c-.1.5 0 1 .3 1.4.3.4.8.6 1.3.6l87.6-.6c.5 0 1-.2 1.3-.6.2-.3.3-.9.2-1.3zM77.2 49h5.2l1.8 7.2h-9.3l2.3-7.2zm-8.6 26.5l5.2-15.9h11.1l3.9 16.1H68.6c0-.1 0-.1 0-.2zm-41.6.2H12.6l4.3-16.1H27v16.1zM19.7 49H27v7.2h-9.2l1.9-7.2zm33.5 40.5l-6.1-9.2-2.7 1.8 4.9 7.4-40.5.3L11.7 79H27v7.6h3.3V79h59.3l2.5 10.2-38.9.3z"/></svg>