<svg xmlns="http://www.w3.org/2000/svg" viewBox="0 0 100 100"><path d="M53.7 37h-9.3c-1.9 0-3.4 1.5-3.4 3.4v23.1c0 1.9 1.5 3.4 3.4 3.4s3.4-1.5 3.4-3.4v-7.4h6c5 0 9.1-4.1 9.1-9.1v-.9c-.1-5-4.2-9.1-9.2-9.1zm2.4 10c0 1.3-1.1 2.3-2.3 2.3h-6v-5.6h6c1.3 0 2.3 1.1 2.3 2.3v1zm37.2-.4H83c-1.7-16.7-15.9-29.8-33-29.8S18.7 29.9 17 46.6h-6.8A39.95 39.95 0 0150 10.1c18.8 0 35.2 13.3 39.1 31.6.4 1.8 2.2 3 4 2.6 1.8-.4 3-2.2 2.6-4C91.2 18.9 72 3.3 50 3.3 24.3 3.3 3.3 24.3 3.3 50c0 1.9 1.5 3.4 3.4 3.4H17c1.7 16.7 15.9 29.8 33 29.8s31.3-13.1 33-29.8h6.8A39.95 39.95 0 0150 89.9c-18.6 0-35-13.1-39-31.3-.4-1.8-2.2-3-4-2.6-1.8.4-3 2.2-2.6 4C9.1 81.3 28.3 96.7 50 96.7c25.7 0 46.7-20.9 46.7-46.7 0-1.9-1.5-3.4-3.4-3.4zM50 76.5c-14.6 0-26.5-11.9-26.5-26.5S35.4 23.5 50 23.5 76.5 35.4 76.5 50 64.6 76.5 50 76.5z"/></svg>