<svg xmlns="http://www.w3.org/2000/svg" viewBox="0 0 100 100"><path d="M92.4 22.9c-2-2-4.1-3.8-6.5-5.9l-.6-.5c-1.5-1.3-3-1.9-4.6-1.9-2.8 0-4.6 2-4.9 2.3l-5.4 6c-.1.1-.2.2-.3.3l-4.5 5.3-32.9 35.2c-.2.2-.3.4-.4.6L28.4 76c-.1.2-.2.4-.2.7L25 86.4c-.2.6 0 1.3.4 1.7.3.3.7.5 1.1.5.2 0 .4 0 .6-.1L49 79.9c.2-.1.4-.2.6-.4l32.5-35.8c.1-.1.2-.3.3-.5.2-.1.4-.2.6-.4l3.4-3.7c.1-.1.2-.3.3-.5 1.9-1.9 5.9-6.1 6.3-6.6 2.7-3 2.5-6-.6-9.1zM80.9 40.3L69 29.3l1.6-1.8 11.9 11.1-1.6 1.7zM30.6 79.9l2.8 2.6-4.2 1.6 1.4-4.2zm17.6-3.7l-2.8-2.6c-.7-.6-1.7-.6-2.3.1-.6.7-.6 1.7.1 2.3l2 1.9-8.4 3.3-5-4.7 2.8-8.5 5.1 4.7c.3.3.7.4 1.1.4.4 0 .9-.2 1.2-.5.6-.7.6-1.7-.1-2.3L36.1 65l30.7-33.1 11.8 10.9-30.4 33.4zm42.4-46.4c-.3.4-3.4 3.6-6 6.3L72.8 25l5.4-6.1s1-1.1 2.4-1.1c.8 0 1.6.4 2.5 1.1l.6.5c2.4 2.1 4.4 3.9 6.4 5.8 2.1 2.1 1.8 3.2.5 4.6z"/><path d="M74 43.4c.4 0 .9-.2 1.2-.5.3-.3.5-.7.5-1.2 0-.4-.2-.9-.5-1.2-.3-.3-.7-.5-1.2-.5-.4 0-.9.2-1.2.5-.3.3-.5.7-.5 1.2 0 .4.2.9.5 1.2.3.3.8.5 1.2.5zM46 69.1c-.6.7-.6 1.7.1 2.3.3.3.7.4 1.1.4.4 0 .9-.2 1.2-.5.2-.2 15.9-17 23.7-25.2.6-.7.6-1.7-.1-2.3-.7-.6-1.7-.6-2.3.1A2928 2928 0 0046 69.1zM68.7 38.8c.4 0 .9-.2 1.2-.5.3-.3.5-.7.5-1.2 0-.4-.2-.9-.5-1.2-.3-.3-.7-.5-1.2-.5-.4 0-.9.2-1.2.5-.3.3-.5.7-.5 1.2 0 .4.2.9.5 1.2.4.3.8.5 1.2.5zM64.2 39.5c-7.8 8.4-23.3 24.9-23.3 24.9l2.4 2.3s15.5-16.5 23.3-24.9c.6-.7.6-1.7-.1-2.3-.6-.7-1.7-.7-2.3 0zM86.7 26.8l-3 3.2c-.6.7-.6 1.7.1 2.3.3.3.7.4 1.1.4.4 0 .9-.2 1.2-.5l3-3.2c.6-.7.6-1.7-.1-2.3-.6-.6-1.7-.6-2.3.1zM26.2 78.4c0-.9-.7-1.6-1.6-1.6H8.4V52.6h32.3c.9 0 1.6-.7 1.6-1.6V38.8c0-.9-.7-1.6-1.6-1.6-.9 0-1.6.7-1.6 1.6v10.6H8.7V15H39v13.5c0 .9.7 1.6 1.6 1.6.9 0 1.6-.7 1.6-1.6V14.7h7.9c.9 0 1.6-.7 1.6-1.6 0-.9-.7-1.6-1.6-1.6H6.7c-.9 0-1.6.7-1.6 1.6v65.3c0 .9.7 1.6 1.6 1.6h17.8c.9 0 1.7-.7 1.7-1.6zM75 55.6c-.9 0-1.6.7-1.6 1.6v19.5H55.5c-.9 0-1.6.7-1.6 1.6 0 .9.7 1.6 1.6 1.6H75c.9 0 1.6-.7 1.6-1.6v-21c0-.9-.7-1.7-1.6-1.7zM65.1 14.7h8.2c0 .9.7 1.6 1.6 1.6.9 0 1.6-.7 1.6-1.6v-1.6c0-.9-.7-1.6-1.6-1.6H65c-.9 0-1.6.7-1.6 1.6.1.9.8 1.6 1.7 1.6z"/></svg>