<?xml version="1.0" encoding="utf-8"?>
<!-- Generator: Adobe Illustrator 24.1.1, SVG Export Plug-In . SVG Version: 6.00 Build 0)  -->
<svg version="1.1" id="Layer_1" xmlns="http://www.w3.org/2000/svg" xmlns:xlink="http://www.w3.org/1999/xlink" x="0px" y="0px"
	 viewBox="0 0 100 100" style="enable-background:new 0 0 100 100;" xml:space="preserve">
<g>
	<path d="M92.4,22.9c-2-2-4.1-3.8-6.5-5.9l-0.6-0.5c-1.5-1.3-3-1.9-4.6-1.9c-2.8,0-4.6,2-4.9,2.3l-5.4,6c-0.1,0.1-0.2,0.2-0.3,0.3
		l-4.5,5.3L32.7,63.7c-0.2,0.2-0.3,0.4-0.4,0.6L28.4,76c-0.1,0.2-0.2,0.4-0.2,0.7L25,86.4c-0.2,0.6,0,1.3,0.4,1.7
		c0.3,0.3,0.7,0.5,1.1,0.5c0.2,0,0.4,0,0.6-0.1L49,79.9c0.2-0.1,0.4-0.2,0.6-0.4l32.5-35.8c0.1-0.1,0.2-0.3,0.3-0.5
		c0.2-0.1,0.4-0.2,0.6-0.4l3.4-3.7c0.1-0.1,0.2-0.3,0.3-0.5c1.9-1.9,5.9-6.1,6.3-6.6C95.7,29,95.5,26,92.4,22.9z M80.9,40.3L69,29.3
		l1.6-1.8l11.9,11.1L80.9,40.3z M30.6,79.9l2.8,2.6l-4.2,1.6L30.6,79.9z M48.2,76.2l-2.8-2.6c-0.7-0.6-1.7-0.6-2.3,0.1
		c-0.6,0.7-0.6,1.7,0.1,2.3l2,1.9l-8.4,3.3l-5-4.7l2.8-8.5l5.1,4.7c0.3,0.3,0.7,0.4,1.1,0.4c0.4,0,0.9-0.2,1.2-0.5
		c0.6-0.7,0.6-1.7-0.1-2.3l-5.8-5.3l30.7-33.1l11.8,10.9L48.2,76.2z M90.6,29.8c-0.3,0.4-3.4,3.6-6,6.3L72.8,25l5.4-6.1c0,0,0,0,0,0
		c0,0,1-1.1,2.4-1.1c0.8,0,1.6,0.4,2.5,1.1l0.6,0.5c2.4,2.1,4.4,3.9,6.4,5.8C92.2,27.3,91.9,28.4,90.6,29.8z"/>
	<path d="M74,43.4c0.4,0,0.9-0.2,1.2-0.5c0.3-0.3,0.5-0.7,0.5-1.2c0-0.4-0.2-0.9-0.5-1.2c-0.3-0.3-0.7-0.5-1.2-0.5
		c-0.4,0-0.9,0.2-1.2,0.5c-0.3,0.3-0.5,0.7-0.5,1.2c0,0.4,0.2,0.9,0.5,1.2C73.1,43.2,73.6,43.4,74,43.4z"/>
	<path d="M46,69.1c-0.6,0.7-0.6,1.7,0.1,2.3c0.3,0.3,0.7,0.4,1.1,0.4c0.4,0,0.9-0.2,1.2-0.5c0.2-0.2,15.9-17,23.7-25.2
		c0.6-0.7,0.6-1.7-0.1-2.3c-0.7-0.6-1.7-0.6-2.3,0.1C61.9,52.1,46.1,68.9,46,69.1z"/>
	<path d="M68.7,38.8c0.4,0,0.9-0.2,1.2-0.5c0.3-0.3,0.5-0.7,0.5-1.2c0-0.4-0.2-0.9-0.5-1.2c-0.3-0.3-0.7-0.5-1.2-0.5
		c-0.4,0-0.9,0.2-1.2,0.5c-0.3,0.3-0.5,0.7-0.5,1.2c0,0.4,0.2,0.9,0.5,1.2C67.9,38.6,68.3,38.8,68.7,38.8z"/>
	<path d="M64.2,39.5c-7.8,8.4-23.3,24.9-23.3,24.9l2.4,2.3c0,0,15.5-16.5,23.3-24.9c0.6-0.7,0.6-1.7-0.1-2.3
		C65.9,38.8,64.8,38.8,64.2,39.5z"/>
	<path d="M86.7,26.8l-3,3.2c-0.6,0.7-0.6,1.7,0.1,2.3c0.3,0.3,0.7,0.4,1.1,0.4c0.4,0,0.9-0.2,1.2-0.5l3-3.2c0.6-0.7,0.6-1.7-0.1-2.3
		C88.4,26.1,87.3,26.1,86.7,26.8z"/>
	<path d="M26.2,78.4c0-0.9-0.7-1.6-1.6-1.6H8.4V52.6h32.3c0.9,0,1.6-0.7,1.6-1.6V38.8c0-0.9-0.7-1.6-1.6-1.6c-0.9,0-1.6,0.7-1.6,1.6
		v10.6H8.7V15H39v13.5c0,0.9,0.7,1.6,1.6,1.6c0.9,0,1.6-0.7,1.6-1.6V14.7h7.9c0.9,0,1.6-0.7,1.6-1.6c0-0.9-0.7-1.6-1.6-1.6H6.7
		c-0.9,0-1.6,0.7-1.6,1.6v65.3c0,0.9,0.7,1.6,1.6,1.6h17.8C25.4,80,26.2,79.3,26.2,78.4z"/>
	<path d="M75,55.6c-0.9,0-1.6,0.7-1.6,1.6v19.5H55.5c-0.9,0-1.6,0.7-1.6,1.6c0,0.9,0.7,1.6,1.6,1.6H75c0.9,0,1.6-0.7,1.6-1.6V57.3
		C76.6,56.4,75.9,55.6,75,55.6z"/>
	<path d="M65.1,14.7h8.2c0,0.9,0.7,1.6,1.6,1.6c0.9,0,1.6-0.7,1.6-1.6v-1.6c0-0.9-0.7-1.6-1.6-1.6h-9.9c-0.9,0-1.6,0.7-1.6,1.6
		C63.5,14,64.2,14.7,65.1,14.7z"/>
</g>
</svg>
