<svg version="1.1" id="property_value_icon" xmlns="http://www.w3.org/2000/svg" xmlns:xlink="http://www.w3.org/1999/xlink" x="0px" y="0px"
	 viewBox="0 0 100 100" style="enable-background:new 0 0 100 100;" xml:space="preserve">
<g>
	<g>
		<g>
			<g>
				<g>
					<g>
						<rect x="82.9" y="18.4" class="property_value_icon_class" width="3.7" height="5.6"/>
					</g>
				</g>
			</g>
		</g>
	</g>
	<g>
		<g>
			<g>
				<g>
					<g>
						<polygon class="property_value_icon_class" points="56.9,95 13.4,95 13.4,5 86.6,5 86.6,15.4 82.9,15.4 82.9,8.7 17.1,8.7 17.1,91.3 56.9,91.3 
													"/>
					</g>
				</g>
			</g>
		</g>
	</g>
	<g>
		<g>
			<g>
				<g>
					<g>
						<polygon class="property_value_icon_class" points="66.5,95 60.2,95 60.2,91.3 62.8,91.3 62.8,69.3 82.9,69.3 82.9,31.4 86.6,31.4 86.6,73.1 
							66.5,73 						"/>
					</g>
				</g>
			</g>
		</g>
	</g>
	<g>
		<g>
			<g>
				<g>
					<g>
						<path class="property_value_icon_class" d="M65.9,95c-0.5,0-0.9-0.2-1.3-0.5c-0.7-0.7-0.8-1.9-0.1-2.6l18.8-20.1c0.7-0.7,1.9-0.8,2.6-0.1
							c0.7,0.7,0.8,1.9,0.1,2.6L67.3,94.4C66.9,94.8,66.4,95,65.9,95z"/>
					</g>
				</g>
			</g>
		</g>
	</g>
	<g>
		<g>
			<g>
				<g>
					<g>
						<rect x="36.4" y="54.1" class="property_value_icon_class" width="36.1" height="3.7"/>
					</g>
				</g>
			</g>
		</g>
	</g>
	<g>
		<g>
			<g>
				<g>
					<g>
						<rect x="35.3" y="46.3" class="property_value_icon_class" width="37.2" height="3.7"/>
					</g>
				</g>
			</g>
		</g>
	</g>
	<g>
		<g>
			<g>
				<g>
					<g>
						<rect x="29" y="46.3" class="property_value_icon_class" width="3.7" height="3.3"/>
					</g>
				</g>
			</g>
		</g>
	</g>
	<g>
		<g>
			<g>
				<g>
					<g>
						<g>
							<rect x="29" y="54.5" class="property_value_icon_class" width="3.7" height="3.3"/>
						</g>
					</g>
				</g>
			</g>
		</g>
	</g>
	<g>
		<g>
			<g>
				<g>
					<g>
						<rect x="35.7" y="61.9" class="property_value_icon_class" width="37.2" height="3.7"/>
					</g>
				</g>
			</g>
		</g>
	</g>
	<g>
		<g>
			<g>
				<g>
					<g>
						<rect x="29" y="61.9" class="property_value_icon_class" width="3.7" height="3.3"/>
					</g>
				</g>
			</g>
		</g>
	</g>
	<g>
		<g>
			<g>
				<g>
					<g>
						<g>
							<rect x="35.3" y="69.7" class="property_value_icon_class" width="25.3" height="3.7"/>
						</g>
					</g>
				</g>
			</g>
		</g>
		<g>
			<g>
				<g>
					<g>
						<g>
							<rect x="29" y="69.7" class="property_value_icon_class" width="3.7" height="3.3"/>
						</g>
					</g>
				</g>
			</g>
		</g>
	</g>
	<g>
		<g>
			<g>
				<g>
					<g>
						<path class="property_value_icon_class" d="M59.5,41.1H42V27.7h17.5V41.1z M45.7,37.4h10v-5.9h-10V37.4z"/>
					</g>
				</g>
			</g>
		</g>
	</g>
	<g>
		<g>
			<g>
				<g>
					<g>
						<polygon class="property_value_icon_class" points="39.5,33.6 37,30.9 50.7,17.7 64.9,30.8 62.4,33.6 50.8,22.8 						"/>
					</g>
				</g>
			</g>
		</g>
	</g>
</g>
</svg>
