<svg xmlns="http://www.w3.org/2000/svg" xmlns:xlink="http://www.w3.org/1999/xlink" id="Layer_1" x="0px" y="0px" viewBox="0 0 100 100" style="enable-background:new 0 0 100 100;" xml:space="preserve">
<g>
	<path class="dt-skin-primary-color" d="M64.7,63.6V38.4c0-1-0.8-1.9-1.9-1.9H42.3v0c-1,0-1.9,0.8-1.9,1.9v3.8c1.3,0.4,2.5,0.9,3.7,1.5v-3.4H61v23.4   H64.7z"></path>
	<path class="dt-skin-primary-color" d="M50.9,49c3.4,4.1,5.2,9.3,5,14.6h2.8V42.5H46.5V45C48.1,46.1,49.6,47.4,50.9,49z"></path>
	<polygon class="dt-skin-primary-color" points="34.1,14.6 25.8,14.6 25.8,26.8 34.1,21  "></polygon>
	<path class="dt-skin-primary-color" d="M18.5,42.5l11.1-7.8l23.1-16.1l34.2,23.9c1.4,1,3.3,0.6,4.3-0.8c1-1.4,0.6-3.3-0.8-4.3L54.5,12.3   c-1-0.8-2.5-0.8-3.6,0L26.1,29.6L15,37.4c-1.4,1-1.7,2.9-0.8,4.3C15.2,43.1,17.1,43.5,18.5,42.5z"></path>
	<path class="dt-skin-primary-color" d="M26.4,43v-4l-3.7,2.6v3.4C23.9,44.3,25.1,43.6,26.4,43z"></path>
	<path class="dt-skin-primary-color" d="M93.8,48.3c-1,0-1.9,0.8-1.9,1.9v2.8h-2.7v-2.8c0-1-0.8-1.9-1.9-1.9c-1,0-1.9,0.8-1.9,1.9v2.8h-2.7V41.7L79,39   v27H55.6c-0.2,1.3-0.5,2.5-1,3.7h26.2c1,0,1.9-0.8,1.9-1.9V56.7h2.7v13.1h3.7V56.7h2.7v13.1h3.7v-15v-4.6   C95.7,49.1,94.8,48.3,93.8,48.3z"></path>
	<path class="dt-skin-primary-color" d="M8.1,56.7h2.7v13.1h3.7l0,0l0,0v-0.1c-1-2.8-1.4-5.9-1.1-8.9c0.2-2.8,1-5.4,2.2-7.8h-1.1v-2.8   c0-1-0.8-1.9-1.9-1.9c-1,0-1.9,0.8-1.9,1.9V53H8.1v-2.8c0-1-0.8-1.9-1.9-1.9c-1,0-1.9,0.8-1.9,1.9v4.6v15h3.7V56.7z"></path>
	<path class="dt-skin-primary-color" d="M36.2,44.8c-4.6-0.4-9.3,0.9-13.1,4.1c-3.8,3.2-5.9,7.6-6.3,12.2c-0.3,3.8,0.5,7.7,2.7,11.1l-0.8,0.7   c-0.9-0.6-1.6-0.8-2-0.5L5.4,81.9c-0.6,0.5,0,2.4,1.5,4.1c1.5,1.7,3.1,2.7,3.8,2.2l11.3-9.4c0.4-0.3,0.3-1.1-0.1-2.1l0.8-0.7   c3,2.7,6.7,4.3,10.5,4.6c4.6,0.4,9.3-0.9,13.1-4.1c3.8-3.2,5.9-7.6,6.3-12.2c0.4-4.6-0.9-9.3-4.1-13.1   C45.2,47.4,40.8,45.2,36.2,44.8z M47.7,63.8c-0.3,3.3-1.9,6.6-4.6,8.9c-2.8,2.3-6.2,3.3-9.6,3c-3.3-0.3-6.6-1.9-8.9-4.6   c-2.3-2.8-3.3-6.2-3-9.6c0.3-3.3,1.9-6.6,4.6-8.9c2.8-2.3,6.2-3.3,9.6-3c3.3,0.3,6.6,1.9,8.9,4.6C47,57,48,60.5,47.7,63.8z"></path>
	<path class="dt-skin-primary-color" d="M40.3,69.9c-0.9,0.8-2,1.3-3,1.7c-1.1,0.4-2.3,0.5-3.4,0.4c-1.2-0.1-2.3-0.4-3.3-1c-1-0.5-1.9-1.2-2.7-2.2   c-0.8-0.9-1.3-1.9-1.7-3c-0.4-1.1-0.5-2.3-0.4-3.4c0-0.5-0.3-0.9-0.8-0.9c-0.5,0-0.9,0.3-0.9,0.8c-0.1,1.4,0,2.8,0.4,4.1   c0.4,1.3,1.1,2.5,2,3.6c0.9,1.1,2,2,3.2,2.6c1.2,0.6,2.6,1,3.9,1.1c1.4,0.1,2.8,0,4.1-0.4c1.3-0.4,2.5-1.1,3.6-2   c0.3-0.3,0.4-0.8,0.1-1.2C41.1,69.6,40.6,69.6,40.3,69.9z"></path>
</g>
</svg>